{
	"patcher" : 	{
		"fileversion" : 1,
		"rect" : [ 62.0, 73.0, 999.0, 653.0 ],
		"bglocked" : 0,
		"defrect" : [ 62.0, 73.0, 999.0, 653.0 ],
		"openrect" : [ 0.0, 0.0, 0.0, 0.0 ],
		"openinpresentation" : 1,
		"default_fontsize" : 12.0,
		"default_fontface" : 0,
		"default_fontname" : "Arial",
		"gridonopen" : 0,
		"gridsize" : [ 15.0, 15.0 ],
		"gridsnaponopen" : 0,
		"toolbarvisible" : 1,
		"boxanimatetime" : 200,
		"imprint" : 0,
		"metadata" : [  ],
		"boxes" : [ 			{
				"box" : 				{
					"maxclass" : "message",
					"text" : "border 1, bordercolor 0 0 0",
					"fontname" : "Arial",
					"id" : "obj-20",
					"numinlets" : 2,
					"fontsize" : 12.0,
					"numoutlets" : 1,
					"patching_rect" : [ 1019.0, 128.0, 153.0, 18.0 ],
					"outlettype" : [ "" ]
				}

			}
, 			{
				"box" : 				{
					"maxclass" : "message",
					"text" : "border 4, bordercolor 1 0 0",
					"fontname" : "Arial",
					"id" : "obj-21",
					"numinlets" : 2,
					"fontsize" : 12.0,
					"numoutlets" : 1,
					"patching_rect" : [ 1019.0, 99.0, 153.0, 18.0 ],
					"outlettype" : [ "" ]
				}

			}
, 			{
				"box" : 				{
					"maxclass" : "message",
					"text" : "border 1, bordercolor 0 0 0",
					"fontname" : "Arial",
					"id" : "obj-13",
					"numinlets" : 2,
					"fontsize" : 12.0,
					"numoutlets" : 1,
					"patching_rect" : [ 1017.0, 61.0, 153.0, 18.0 ],
					"outlettype" : [ "" ]
				}

			}
, 			{
				"box" : 				{
					"maxclass" : "message",
					"text" : "border 4, bordercolor 1 0 0",
					"fontname" : "Arial",
					"id" : "obj-11",
					"numinlets" : 2,
					"fontsize" : 12.0,
					"numoutlets" : 1,
					"patching_rect" : [ 1017.0, 32.0, 153.0, 18.0 ],
					"outlettype" : [ "" ]
				}

			}
, 			{
				"box" : 				{
					"maxclass" : "ubutton",
					"hint" : "Show outputs 9 to 16",
					"id" : "obj-19",
					"presentation_rect" : [ 499.0, 548.0, 47.0, 67.0 ],
					"numinlets" : 1,
					"handoff" : "",
					"numoutlets" : 4,
					"patching_rect" : [ 891.0, 19.0, 47.0, 67.0 ],
					"presentation" : 1,
					"outlettype" : [ "bang", "bang", "", "int" ]
				}

			}
, 			{
				"box" : 				{
					"maxclass" : "ubutton",
					"hint" : "Show outputs 1 to 8",
					"id" : "obj-18",
					"presentation_rect" : [ 450.0, 548.0, 49.0, 67.0 ],
					"numinlets" : 1,
					"handoff" : "",
					"numoutlets" : 4,
					"patching_rect" : [ 842.0, 19.0, 49.0, 67.0 ],
					"presentation" : 1,
					"outlettype" : [ "bang", "bang", "", "int" ]
				}

			}
, 			{
				"box" : 				{
					"maxclass" : "comment",
					"text" : "B",
					"fontname" : "Didot",
					"id" : "obj-16",
					"presentation_rect" : [ 506.0, 557.0, 60.0, 52.0 ],
					"numinlets" : 1,
					"fontsize" : 40.0,
					"numoutlets" : 0,
					"patching_rect" : [ 898.0, 29.0, 60.0, 52.0 ],
					"presentation" : 1
				}

			}
, 			{
				"box" : 				{
					"maxclass" : "comment",
					"text" : "A",
					"fontname" : "Didot",
					"frgb" : [ 1.0, 1.0, 1.0, 1.0 ],
					"id" : "obj-15",
					"textcolor" : [ 1.0, 1.0, 1.0, 1.0 ],
					"presentation_rect" : [ 455.0, 559.0, 66.0, 52.0 ],
					"numinlets" : 1,
					"fontsize" : 40.0,
					"numoutlets" : 0,
					"patching_rect" : [ 847.0, 31.0, 66.0, 52.0 ],
					"presentation" : 1
				}

			}
, 			{
				"box" : 				{
					"maxclass" : "panel",
					"rounded" : 0,
					"border" : 1,
					"id" : "obj-14",
					"presentation_rect" : [ 498.0, 549.0, 48.0, 64.0 ],
					"bgcolor" : [ 1.0, 1.0, 1.0, 1.0 ],
					"numinlets" : 1,
					"numoutlets" : 0,
					"patching_rect" : [ 890.0, 21.0, 48.0, 64.0 ],
					"presentation" : 1
				}

			}
, 			{
				"box" : 				{
					"maxclass" : "panel",
					"rounded" : 0,
					"border" : 4,
					"id" : "obj-12",
					"presentation_rect" : [ 450.0, 549.0, 48.0, 64.0 ],
					"bgcolor" : [ 0.0, 0.0, 0.0, 1.0 ],
					"numinlets" : 1,
					"numoutlets" : 0,
					"patching_rect" : [ 842.0, 21.0, 48.0, 64.0 ],
					"bordercolor" : [ 1.0, 0.0, 0.0, 1.0 ],
					"presentation" : 1
				}

			}
, 			{
				"box" : 				{
					"maxclass" : "message",
					"text" : "bang",
					"fontname" : "Arial",
					"id" : "obj-10",
					"numinlets" : 2,
					"fontsize" : 12.0,
					"numoutlets" : 1,
					"patching_rect" : [ 117.0, 330.0, 37.0, 18.0 ],
					"outlettype" : [ "" ]
				}

			}
, 			{
				"box" : 				{
					"maxclass" : "message",
					"text" : "bang",
					"fontname" : "Arial",
					"id" : "obj-8",
					"numinlets" : 2,
					"fontsize" : 12.0,
					"numoutlets" : 1,
					"patching_rect" : [ 765.0, 17.0, 37.0, 18.0 ],
					"outlettype" : [ "" ]
				}

			}
, 			{
				"box" : 				{
					"maxclass" : "message",
					"text" : "offset -25 -810",
					"fontname" : "Arial",
					"id" : "obj-7",
					"numinlets" : 2,
					"fontsize" : 12.0,
					"numoutlets" : 1,
					"patching_rect" : [ 870.0, 96.0, 88.0, 18.0 ],
					"outlettype" : [ "" ]
				}

			}
, 			{
				"box" : 				{
					"maxclass" : "message",
					"text" : "offset -25 -60",
					"fontname" : "Arial",
					"id" : "obj-6",
					"numinlets" : 2,
					"fontsize" : 12.0,
					"numoutlets" : 1,
					"patching_rect" : [ 780.0, 96.0, 81.0, 18.0 ],
					"outlettype" : [ "" ]
				}

			}
, 			{
				"box" : 				{
					"maxclass" : "bpatcher",
					"varname" : "outputHandlerContents",
					"args" : [  ],
					"id" : "obj-2",
					"presentation_rect" : [ 2.0, -5.0, 999.0, 544.0 ],
					"numinlets" : 3,
					"name" : "outputHandlerContents.maxpat",
					"numoutlets" : 1,
					"patching_rect" : [ 349.0, 155.0, 450.0, 421.0 ],
					"presentation" : 1,
					"offset" : [ -25.0, -60.0 ],
					"outlettype" : [ "" ]
				}

			}
, 			{
				"box" : 				{
					"maxclass" : "inlet",
					"id" : "obj-1",
					"numinlets" : 0,
					"numoutlets" : 1,
					"patching_rect" : [ 31.0, 22.0, 25.0, 25.0 ],
					"outlettype" : [ "" ],
					"comment" : "Configuration messages to be passed on to outputHandlerContents"
				}

			}
, 			{
				"box" : 				{
					"maxclass" : "message",
					"text" : "window flags grow, window flags menu, window exec",
					"linecount" : 3,
					"fontname" : "Arial",
					"id" : "obj-82",
					"numinlets" : 2,
					"fontsize" : 12.0,
					"numoutlets" : 1,
					"patching_rect" : [ 110.08345, 267.890228, 142.0, 46.0 ],
					"outlettype" : [ "" ]
				}

			}
, 			{
				"box" : 				{
					"maxclass" : "message",
					"text" : "window flags nogrow, window flags nomenu, window exec",
					"linecount" : 3,
					"fontname" : "Arial",
					"id" : "obj-113",
					"numinlets" : 2,
					"fontsize" : 12.0,
					"numoutlets" : 1,
					"patching_rect" : [ 89.0, 213.0, 133.0, 46.0 ],
					"outlettype" : [ "" ]
				}

			}
, 			{
				"box" : 				{
					"maxclass" : "newobj",
					"text" : "send masterMidiOutputPort",
					"fontname" : "Arial",
					"id" : "obj-297",
					"numinlets" : 1,
					"fontsize" : 12.0,
					"numoutlets" : 0,
					"patching_rect" : [ 85.809998, 437.379944, 157.0, 20.0 ]
				}

			}
, 			{
				"box" : 				{
					"maxclass" : "comment",
					"text" : "Master midi output port",
					"fontname" : "Arial Bold",
					"id" : "obj-36",
					"presentation_rect" : [ 19.0, 549.0, 142.0, 20.0 ],
					"fontface" : 1,
					"numinlets" : 1,
					"fontsize" : 12.0,
					"numoutlets" : 0,
					"patching_rect" : [ 81.0, 372.0, 177.0, 20.0 ],
					"presentation" : 1
				}

			}
, 			{
				"box" : 				{
					"maxclass" : "newobj",
					"text" : "delay 1000",
					"fontname" : "Arial",
					"id" : "obj-17",
					"numinlets" : 2,
					"fontsize" : 12.0,
					"numoutlets" : 1,
					"patching_rect" : [ 209.0, 150.0, 69.0, 20.0 ],
					"outlettype" : [ "bang" ]
				}

			}
, 			{
				"box" : 				{
					"maxclass" : "umenu",
					"varname" : "midiPortSelector",
					"fontname" : "Arial",
					"types" : [  ],
					"id" : "obj-9",
					"presentation_rect" : [ 19.0, 569.0, 136.0, 20.0 ],
					"numinlets" : 1,
					"fontsize" : 11.595187,
					"numoutlets" : 3,
					"patching_rect" : [ 27.0, 395.0, 136.0, 20.0 ],
					"presentation" : 1,
					"outlettype" : [ "int", "", "" ],
					"items" : [ "Microsoft Synthesizer", ",", "Microsoft GS Wavetable SW Synth" ]
				}

			}
, 			{
				"box" : 				{
					"maxclass" : "newobj",
					"text" : "midiinfo",
					"fontname" : "Arial",
					"id" : "obj-26",
					"numinlets" : 2,
					"fontsize" : 11.595187,
					"color" : [ 0.0, 1.0, 0.231373, 1.0 ],
					"numoutlets" : 1,
					"patching_rect" : [ 27.0, 369.0, 50.0, 20.0 ],
					"outlettype" : [ "" ]
				}

			}
, 			{
				"box" : 				{
					"maxclass" : "message",
					"text" : ";\r\ndsp start",
					"linecount" : 2,
					"fontname" : "Arial",
					"id" : "obj-25",
					"numinlets" : 2,
					"fontsize" : 12.0,
					"numoutlets" : 1,
					"patching_rect" : [ 209.0, 177.0, 57.0, 32.0 ],
					"outlettype" : [ "" ]
				}

			}
, 			{
				"box" : 				{
					"maxclass" : "newobj",
					"text" : "loadbang",
					"fontname" : "Arial",
					"id" : "obj-5",
					"numinlets" : 1,
					"fontsize" : 12.0,
					"numoutlets" : 1,
					"patching_rect" : [ 29.0, 118.0, 60.0, 20.0 ],
					"outlettype" : [ "bang" ]
				}

			}
, 			{
				"box" : 				{
					"maxclass" : "message",
					"text" : "patcher \"Output configuration\"",
					"fontname" : "Arial",
					"id" : "obj-4",
					"numinlets" : 2,
					"fontsize" : 12.0,
					"numoutlets" : 1,
					"patching_rect" : [ 29.0, 148.0, 170.0, 18.0 ],
					"outlettype" : [ "" ]
				}

			}
, 			{
				"box" : 				{
					"maxclass" : "newobj",
					"text" : "thispatcher",
					"fontname" : "Arial",
					"id" : "obj-3",
					"numinlets" : 1,
					"fontsize" : 12.0,
					"numoutlets" : 2,
					"patching_rect" : [ 27.0, 324.0, 69.0, 20.0 ],
					"outlettype" : [ "", "" ],
					"save" : [ "#N", "thispatcher", ";", "#Q", "end", ";" ]
				}

			}
 ],
		"lines" : [ 			{
				"patchline" : 				{
					"source" : [ "obj-20", 0 ],
					"destination" : [ "obj-12", 0 ],
					"hidden" : 0,
					"midpoints" : [ 1028.5, 151.0, 974.0, 151.0, 974.0, 6.0, 851.5, 6.0 ]
				}

			}
, 			{
				"patchline" : 				{
					"source" : [ "obj-19", 0 ],
					"destination" : [ "obj-20", 0 ],
					"hidden" : 0,
					"midpoints" : [ 900.5, 91.0, 999.0, 91.0, 999.0, 126.0, 1028.5, 126.0 ]
				}

			}
, 			{
				"patchline" : 				{
					"source" : [ "obj-21", 0 ],
					"destination" : [ "obj-14", 0 ],
					"hidden" : 0,
					"midpoints" : [ 1028.5, 119.0, 985.0, 119.0, 985.0, 13.0, 899.5, 13.0 ]
				}

			}
, 			{
				"patchline" : 				{
					"source" : [ "obj-19", 0 ],
					"destination" : [ "obj-21", 0 ],
					"hidden" : 0,
					"midpoints" : [ 900.5, 92.0, 1028.5, 92.0 ]
				}

			}
, 			{
				"patchline" : 				{
					"source" : [ "obj-13", 0 ],
					"destination" : [ "obj-14", 0 ],
					"hidden" : 0,
					"midpoints" : [ 1026.5, 81.0, 965.0, 81.0, 965.0, 13.0, 899.5, 13.0 ]
				}

			}
, 			{
				"patchline" : 				{
					"source" : [ "obj-18", 0 ],
					"destination" : [ "obj-13", 0 ],
					"hidden" : 0,
					"midpoints" : [ 851.5, 87.0, 1004.0, 87.0, 1004.0, 57.0, 1026.5, 57.0 ]
				}

			}
, 			{
				"patchline" : 				{
					"source" : [ "obj-11", 0 ],
					"destination" : [ "obj-12", 0 ],
					"hidden" : 0,
					"midpoints" : [ 1026.5, 53.0, 973.0, 53.0, 973.0, 5.0, 851.5, 5.0 ]
				}

			}
, 			{
				"patchline" : 				{
					"source" : [ "obj-18", 0 ],
					"destination" : [ "obj-11", 0 ],
					"hidden" : 0,
					"midpoints" : [ 851.5, 88.0, 1005.0, 88.0, 1005.0, 23.0, 1026.5, 23.0 ]
				}

			}
, 			{
				"patchline" : 				{
					"source" : [ "obj-9", 1 ],
					"destination" : [ "obj-2", 2 ],
					"hidden" : 0,
					"midpoints" : [ 95.0, 426.0, 81.0, 426.0, 81.0, 590.0, 905.0, 590.0, 905.0, 116.0 ]
				}

			}
, 			{
				"patchline" : 				{
					"source" : [ "obj-5", 0 ],
					"destination" : [ "obj-8", 0 ],
					"hidden" : 0,
					"midpoints" : [ 38.5, 142.0, 291.0, 142.0, 291.0, 5.0, 774.5, 5.0 ]
				}

			}
, 			{
				"patchline" : 				{
					"source" : [ "obj-82", 0 ],
					"destination" : [ "obj-3", 0 ],
					"hidden" : 0,
					"midpoints" : [  ]
				}

			}
, 			{
				"patchline" : 				{
					"source" : [ "obj-5", 0 ],
					"destination" : [ "obj-113", 0 ],
					"hidden" : 0,
					"midpoints" : [ 38.5, 140.0, 23.0, 140.0, 23.0, 200.0, 98.5, 200.0 ]
				}

			}
, 			{
				"patchline" : 				{
					"source" : [ "obj-9", 1 ],
					"destination" : [ "obj-297", 0 ],
					"hidden" : 0,
					"midpoints" : [  ]
				}

			}
, 			{
				"patchline" : 				{
					"source" : [ "obj-17", 0 ],
					"destination" : [ "obj-25", 0 ],
					"hidden" : 0,
					"midpoints" : [  ]
				}

			}
, 			{
				"patchline" : 				{
					"source" : [ "obj-5", 0 ],
					"destination" : [ "obj-17", 0 ],
					"hidden" : 0,
					"midpoints" : [ 38.5, 143.0, 218.5, 143.0 ]
				}

			}
, 			{
				"patchline" : 				{
					"source" : [ "obj-4", 0 ],
					"destination" : [ "obj-3", 0 ],
					"hidden" : 0,
					"midpoints" : [  ]
				}

			}
, 			{
				"patchline" : 				{
					"source" : [ "obj-5", 0 ],
					"destination" : [ "obj-4", 0 ],
					"hidden" : 0,
					"midpoints" : [  ]
				}

			}
, 			{
				"patchline" : 				{
					"source" : [ "obj-26", 0 ],
					"destination" : [ "obj-9", 0 ],
					"hidden" : 0,
					"midpoints" : [  ]
				}

			}
, 			{
				"patchline" : 				{
					"source" : [ "obj-5", 0 ],
					"destination" : [ "obj-26", 0 ],
					"hidden" : 0,
					"midpoints" : [ 38.5, 142.0, 24.0, 142.0, 24.0, 378.0, 36.5, 378.0 ]
				}

			}
, 			{
				"patchline" : 				{
					"source" : [ "obj-113", 0 ],
					"destination" : [ "obj-3", 0 ],
					"hidden" : 0,
					"midpoints" : [ 98.5, 271.0, 36.5, 271.0 ]
				}

			}
, 			{
				"patchline" : 				{
					"source" : [ "obj-7", 0 ],
					"destination" : [ "obj-2", 1 ],
					"hidden" : 0,
					"midpoints" : [ 879.5, 122.0, 574.0, 122.0 ]
				}

			}
, 			{
				"patchline" : 				{
					"source" : [ "obj-1", 0 ],
					"destination" : [ "obj-2", 0 ],
					"hidden" : 0,
					"midpoints" : [ 40.5, 107.0, 358.5, 107.0 ]
				}

			}
, 			{
				"patchline" : 				{
					"source" : [ "obj-6", 0 ],
					"destination" : [ "obj-2", 1 ],
					"hidden" : 0,
					"midpoints" : [  ]
				}

			}
, 			{
				"patchline" : 				{
					"source" : [ "obj-2", 0 ],
					"destination" : [ "obj-9", 0 ],
					"hidden" : 0,
					"midpoints" : [ 358.5, 581.0, 18.0, 581.0, 18.0, 392.0, 36.5, 392.0 ]
				}

			}
, 			{
				"patchline" : 				{
					"source" : [ "obj-10", 0 ],
					"destination" : [ "obj-26", 0 ],
					"hidden" : 0,
					"midpoints" : [  ]
				}

			}
, 			{
				"patchline" : 				{
					"source" : [ "obj-8", 0 ],
					"destination" : [ "obj-18", 0 ],
					"hidden" : 0,
					"midpoints" : [  ]
				}

			}
, 			{
				"patchline" : 				{
					"source" : [ "obj-18", 0 ],
					"destination" : [ "obj-6", 0 ],
					"hidden" : 0,
					"midpoints" : [  ]
				}

			}
, 			{
				"patchline" : 				{
					"source" : [ "obj-19", 0 ],
					"destination" : [ "obj-7", 0 ],
					"hidden" : 0,
					"midpoints" : [  ]
				}

			}
 ]
	}

}
