{
	"patcher" : 	{
		"fileversion" : 1,
		"rect" : [ 182.0, 70.0, 987.0, 732.0 ],
		"bglocked" : 0,
		"defrect" : [ 182.0, 70.0, 987.0, 732.0 ],
		"openrect" : [ 0.0, 0.0, 0.0, 0.0 ],
		"openinpresentation" : 0,
		"default_fontsize" : 12.0,
		"default_fontface" : 0,
		"default_fontname" : "Arial",
		"gridonopen" : 0,
		"gridsize" : [ 15.0, 15.0 ],
		"gridsnaponopen" : 0,
		"toolbarvisible" : 1,
		"boxanimatetime" : 200,
		"imprint" : 0,
		"metadata" : [  ],
		"boxes" : [ 			{
				"box" : 				{
					"maxclass" : "number",
					"maximum" : 127,
					"fontname" : "Arial",
					"outlettype" : [ "int", "bang" ],
					"id" : "obj-32",
					"fontsize" : 14.0,
					"patching_rect" : [ 555.0, 540.0, 53.0, 23.0 ],
					"numinlets" : 1,
					"ignoreclick" : 1,
					"minimum" : 0,
					"numoutlets" : 2
				}

			}
, 			{
				"box" : 				{
					"maxclass" : "number",
					"maximum" : 127,
					"fontname" : "Arial",
					"outlettype" : [ "int", "bang" ],
					"id" : "obj-31",
					"fontsize" : 14.0,
					"patching_rect" : [ 495.0, 540.0, 53.0, 23.0 ],
					"numinlets" : 1,
					"ignoreclick" : 1,
					"minimum" : 0,
					"numoutlets" : 2
				}

			}
, 			{
				"box" : 				{
					"maxclass" : "number",
					"maximum" : 127,
					"fontname" : "Arial",
					"outlettype" : [ "int", "bang" ],
					"id" : "obj-30",
					"fontsize" : 14.0,
					"patching_rect" : [ 435.0, 540.0, 53.0, 23.0 ],
					"numinlets" : 1,
					"ignoreclick" : 1,
					"minimum" : 0,
					"numoutlets" : 2
				}

			}
, 			{
				"box" : 				{
					"maxclass" : "comment",
					"text" : "4",
					"fontname" : "Arial",
					"id" : "obj-29",
					"fontsize" : 9.0,
					"patching_rect" : [ 573.0, 521.0, 16.0, 17.0 ],
					"numinlets" : 1,
					"numoutlets" : 0
				}

			}
, 			{
				"box" : 				{
					"maxclass" : "comment",
					"text" : "3",
					"fontname" : "Arial",
					"id" : "obj-28",
					"fontsize" : 9.0,
					"patching_rect" : [ 513.0, 521.0, 16.0, 17.0 ],
					"numinlets" : 1,
					"numoutlets" : 0
				}

			}
, 			{
				"box" : 				{
					"maxclass" : "comment",
					"text" : "2",
					"fontname" : "Arial",
					"id" : "obj-27",
					"fontsize" : 9.0,
					"patching_rect" : [ 453.0, 521.0, 16.0, 17.0 ],
					"numinlets" : 1,
					"numoutlets" : 0
				}

			}
, 			{
				"box" : 				{
					"maxclass" : "comment",
					"text" : "1",
					"fontname" : "Arial",
					"id" : "obj-26",
					"fontsize" : 9.0,
					"patching_rect" : [ 393.0, 521.0, 16.0, 17.0 ],
					"numinlets" : 1,
					"numoutlets" : 0
				}

			}
, 			{
				"box" : 				{
					"maxclass" : "number",
					"maximum" : 127,
					"fontname" : "Arial",
					"outlettype" : [ "int", "bang" ],
					"id" : "obj-25",
					"fontsize" : 14.0,
					"patching_rect" : [ 375.0, 540.0, 53.0, 23.0 ],
					"numinlets" : 1,
					"ignoreclick" : 1,
					"minimum" : 0,
					"numoutlets" : 2
				}

			}
, 			{
				"box" : 				{
					"maxclass" : "comment",
					"text" : "Patcher outputs",
					"fontname" : "Arial",
					"id" : "obj-21",
					"fontsize" : 9.0,
					"patching_rect" : [ 289.0, 523.0, 72.0, 17.0 ],
					"numinlets" : 1,
					"numoutlets" : 0
				}

			}
, 			{
				"box" : 				{
					"maxclass" : "panel",
					"id" : "obj-20",
					"patching_rect" : [ 285.0, 510.0, 351.0, 78.0 ],
					"numinlets" : 1,
					"numoutlets" : 0
				}

			}
, 			{
				"box" : 				{
					"maxclass" : "message",
					"text" : "window flags menu, window exec",
					"hidden" : 1,
					"fontname" : "Arial",
					"outlettype" : [ "" ],
					"id" : "obj-57",
					"fontsize" : 12.0,
					"patching_rect" : [ 13.0, 334.0, 188.0, 18.0 ],
					"numinlets" : 2,
					"numoutlets" : 1
				}

			}
, 			{
				"box" : 				{
					"maxclass" : "newobj",
					"text" : "loadbang",
					"hidden" : 1,
					"fontname" : "Arial",
					"outlettype" : [ "bang" ],
					"id" : "obj-10",
					"fontsize" : 12.0,
					"patching_rect" : [ 13.0, 308.0, 60.0, 20.0 ],
					"numinlets" : 1,
					"numoutlets" : 1
				}

			}
, 			{
				"box" : 				{
					"maxclass" : "newobj",
					"text" : "thispatcher",
					"hidden" : 1,
					"fontname" : "Arial",
					"outlettype" : [ "", "" ],
					"id" : "obj-9",
					"fontsize" : 12.0,
					"patching_rect" : [ 13.0, 374.0, 69.0, 20.0 ],
					"numinlets" : 1,
					"numoutlets" : 2,
					"save" : [ "#N", "thispatcher", ";", "#Q", "end", ";" ]
				}

			}
, 			{
				"box" : 				{
					"maxclass" : "comment",
					"text" : "Presets",
					"fontname" : "Arial",
					"id" : "obj-22",
					"fontsize" : 10.0,
					"patching_rect" : [ 88.0, 48.0, 43.0, 18.0 ],
					"numinlets" : 1,
					"numoutlets" : 0
				}

			}
, 			{
				"box" : 				{
					"maxclass" : "outlet",
					"id" : "obj-7",
					"patching_rect" : [ 495.0, 600.0, 23.0, 23.0 ],
					"numinlets" : 1,
					"numoutlets" : 0,
					"comment" : "Outlet 3 for midi-mappable data"
				}

			}
, 			{
				"box" : 				{
					"maxclass" : "outlet",
					"id" : "obj-6",
					"patching_rect" : [ 555.0, 600.0, 23.0, 23.0 ],
					"numinlets" : 1,
					"numoutlets" : 0,
					"comment" : "Outlet 4 for midi-mappable data"
				}

			}
, 			{
				"box" : 				{
					"maxclass" : "outlet",
					"id" : "obj-5",
					"patching_rect" : [ 435.0, 601.0, 23.0, 23.0 ],
					"numinlets" : 1,
					"numoutlets" : 0,
					"comment" : "Outlet 2 for midi-mappable data"
				}

			}
, 			{
				"box" : 				{
					"maxclass" : "outlet",
					"id" : "obj-1",
					"patching_rect" : [ 375.0, 600.0, 23.0, 23.0 ],
					"numinlets" : 1,
					"numoutlets" : 0,
					"comment" : "Outlet 1 for midi-mappable data"
				}

			}
, 			{
				"box" : 				{
					"maxclass" : "message",
					"text" : "dump",
					"hidden" : 1,
					"fontname" : "Arial",
					"outlettype" : [ "" ],
					"id" : "obj-8",
					"fontsize" : 12.0,
					"patching_rect" : [ 15.0, 240.0, 41.0, 18.0 ],
					"numinlets" : 2,
					"numoutlets" : 1
				}

			}
, 			{
				"box" : 				{
					"maxclass" : "newobj",
					"text" : "closebang",
					"hidden" : 1,
					"fontname" : "Arial",
					"outlettype" : [ "bang" ],
					"id" : "obj-3",
					"fontsize" : 12.0,
					"patching_rect" : [ 15.0, 210.0, 65.0, 20.0 ],
					"numinlets" : 0,
					"numoutlets" : 1
				}

			}
, 			{
				"box" : 				{
					"maxclass" : "newobj",
					"varname" : "u451000537",
					"text" : "autopattr @autorestore 0",
					"hidden" : 1,
					"fontname" : "Arial",
					"outlettype" : [ "", "", "", "" ],
					"id" : "obj-17",
					"fontsize" : 12.0,
					"patching_rect" : [ 15.0, 180.0, 144.0, 20.0 ],
					"numinlets" : 1,
					"numoutlets" : 4
				}

			}
, 			{
				"box" : 				{
					"maxclass" : "newobj",
					"varname" : "u695000529",
					"text" : "pattrstorage @activewritemode 1 @autorestore 0",
					"hidden" : 1,
					"fontname" : "Arial",
					"outlettype" : [ "" ],
					"id" : "obj-2",
					"fontsize" : 12.0,
					"patching_rect" : [ 15.0, 270.0, 273.0, 20.0 ],
					"numinlets" : 1,
					"numoutlets" : 1,
					"saved_object_attributes" : 					{
						"client_rect" : [ 729, 229, 1129, 729 ],
						"storage_rect" : [ 200, 200, 800, 500 ]
					}

				}

			}
, 			{
				"box" : 				{
					"maxclass" : "textbutton",
					"fontname" : "Arial",
					"outlettype" : [ "int", "", "int" ],
					"id" : "obj-39",
					"text" : "Save preset file",
					"fontsize" : 12.0,
					"patching_rect" : [ 120.0, 15.0, 100.0, 20.0 ],
					"numinlets" : 1,
					"numoutlets" : 3
				}

			}
, 			{
				"box" : 				{
					"maxclass" : "textbutton",
					"fontname" : "Arial",
					"outlettype" : [ "int", "", "int" ],
					"id" : "obj-38",
					"text" : "Load preset file",
					"fontsize" : 12.0,
					"patching_rect" : [ 15.0, 15.0, 100.0, 20.0 ],
					"numinlets" : 1,
					"numoutlets" : 3
				}

			}
, 			{
				"box" : 				{
					"maxclass" : "newobj",
					"text" : "route state dump",
					"hidden" : 1,
					"fontname" : "Arial",
					"outlettype" : [ "", "", "" ],
					"id" : "obj-24",
					"fontsize" : 12.0,
					"patching_rect" : [ 15.0, 150.0, 101.0, 20.0 ],
					"numinlets" : 1,
					"numoutlets" : 3
				}

			}
, 			{
				"box" : 				{
					"maxclass" : "message",
					"text" : "write",
					"hidden" : 1,
					"fontname" : "Arial",
					"outlettype" : [ "" ],
					"id" : "obj-19",
					"fontsize" : 9.0,
					"patching_rect" : [ 58.0, 40.0, 30.0, 15.0 ],
					"numinlets" : 2,
					"numoutlets" : 1
				}

			}
, 			{
				"box" : 				{
					"maxclass" : "message",
					"text" : "read",
					"hidden" : 1,
					"fontname" : "Arial",
					"outlettype" : [ "" ],
					"id" : "obj-14",
					"fontsize" : 9.0,
					"patching_rect" : [ 15.0, 39.0, 29.0, 15.0 ],
					"numinlets" : 2,
					"numoutlets" : 1
				}

			}
, 			{
				"box" : 				{
					"maxclass" : "outlet",
					"hidden" : 1,
					"id" : "obj-16",
					"patching_rect" : [ 960.0, 15.0, 25.0, 25.0 ],
					"numinlets" : 1,
					"numoutlets" : 0,
					"comment" : "Outlet for internal state messages"
				}

			}
, 			{
				"box" : 				{
					"maxclass" : "inlet",
					"hidden" : 1,
					"outlettype" : [ "" ],
					"id" : "obj-15",
					"patching_rect" : [ 15.0, 120.0, 25.0, 25.0 ],
					"numinlets" : 0,
					"numoutlets" : 1,
					"comment" : ""
				}

			}
, 			{
				"box" : 				{
					"maxclass" : "preset",
					"outlettype" : [ "preset", "int", "preset", "int" ],
					"id" : "obj-4",
					"patching_rect" : [ 14.0, 64.0, 204.0, 16.0 ],
					"numinlets" : 1,
					"numoutlets" : 4
				}

			}
 ],
		"lines" : [ 			{
				"patchline" : 				{
					"source" : [ "obj-32", 0 ],
					"destination" : [ "obj-6", 0 ],
					"hidden" : 0,
					"midpoints" : [  ]
				}

			}
, 			{
				"patchline" : 				{
					"source" : [ "obj-31", 0 ],
					"destination" : [ "obj-7", 0 ],
					"hidden" : 0,
					"midpoints" : [  ]
				}

			}
, 			{
				"patchline" : 				{
					"source" : [ "obj-30", 0 ],
					"destination" : [ "obj-5", 0 ],
					"hidden" : 0,
					"midpoints" : [  ]
				}

			}
, 			{
				"patchline" : 				{
					"source" : [ "obj-25", 0 ],
					"destination" : [ "obj-1", 0 ],
					"hidden" : 0,
					"midpoints" : [  ]
				}

			}
, 			{
				"patchline" : 				{
					"source" : [ "obj-10", 0 ],
					"destination" : [ "obj-57", 0 ],
					"hidden" : 1,
					"midpoints" : [  ]
				}

			}
, 			{
				"patchline" : 				{
					"source" : [ "obj-24", 0 ],
					"destination" : [ "obj-17", 0 ],
					"hidden" : 1,
					"midpoints" : [  ]
				}

			}
, 			{
				"patchline" : 				{
					"source" : [ "obj-14", 0 ],
					"destination" : [ "obj-4", 0 ],
					"hidden" : 1,
					"midpoints" : [  ]
				}

			}
, 			{
				"patchline" : 				{
					"source" : [ "obj-19", 0 ],
					"destination" : [ "obj-4", 0 ],
					"hidden" : 1,
					"midpoints" : [ 67.5, 61.0, 23.5, 61.0 ]
				}

			}
, 			{
				"patchline" : 				{
					"source" : [ "obj-38", 0 ],
					"destination" : [ "obj-14", 0 ],
					"hidden" : 1,
					"midpoints" : [  ]
				}

			}
, 			{
				"patchline" : 				{
					"source" : [ "obj-39", 0 ],
					"destination" : [ "obj-19", 0 ],
					"hidden" : 1,
					"midpoints" : [ 129.5, 38.0, 67.5, 38.0 ]
				}

			}
, 			{
				"patchline" : 				{
					"source" : [ "obj-3", 0 ],
					"destination" : [ "obj-8", 0 ],
					"hidden" : 1,
					"midpoints" : [  ]
				}

			}
, 			{
				"patchline" : 				{
					"source" : [ "obj-8", 0 ],
					"destination" : [ "obj-2", 0 ],
					"hidden" : 1,
					"midpoints" : [  ]
				}

			}
, 			{
				"patchline" : 				{
					"source" : [ "obj-15", 0 ],
					"destination" : [ "obj-24", 0 ],
					"hidden" : 1,
					"midpoints" : [ 24.5, 148.0, 24.5, 148.0 ]
				}

			}
, 			{
				"patchline" : 				{
					"source" : [ "obj-24", 1 ],
					"destination" : [ "obj-8", 0 ],
					"hidden" : 1,
					"midpoints" : [ 65.5, 176.0, 9.0, 176.0, 9.0, 236.0, 24.5, 236.0 ]
				}

			}
, 			{
				"patchline" : 				{
					"source" : [ "obj-2", 0 ],
					"destination" : [ "obj-16", 0 ],
					"hidden" : 1,
					"midpoints" : [ 24.5, 299.0, 4.0, 299.0, 4.0, 6.0, 969.5, 6.0 ]
				}

			}
 ]
	}

}
