{
	"patcher" : 	{
		"fileversion" : 1,
		"rect" : [ 4.0, 50.0, 1439.0, 732.0 ],
		"bglocked" : 0,
		"defrect" : [ 4.0, 50.0, 1439.0, 732.0 ],
		"openrect" : [ 0.0, 0.0, 0.0, 0.0 ],
		"openinpresentation" : 0,
		"default_fontsize" : 12.0,
		"default_fontface" : 0,
		"default_fontname" : "Arial",
		"gridonopen" : 0,
		"gridsize" : [ 15.0, 15.0 ],
		"gridsnaponopen" : 0,
		"toolbarvisible" : 1,
		"boxanimatetime" : 200,
		"imprint" : 0,
		"metadata" : [  ],
		"boxes" : [ 			{
				"box" : 				{
					"maxclass" : "message",
					"text" : "open",
					"numoutlets" : 1,
					"fontname" : "Arial",
					"outlettype" : [ "" ],
					"id" : "obj-82",
					"fontsize" : 12.0,
					"patching_rect" : [ 222.0, 184.0, 37.0, 18.0 ],
					"numinlets" : 2
				}

			}
, 			{
				"box" : 				{
					"maxclass" : "newobj",
					"text" : "route symbol",
					"numoutlets" : 2,
					"fontname" : "Arial",
					"outlettype" : [ "", "" ],
					"id" : "obj-104",
					"fontsize" : 12.0,
					"patching_rect" : [ 989.0, 789.0, 79.0, 20.0 ],
					"numinlets" : 1
				}

			}
, 			{
				"box" : 				{
					"maxclass" : "newobj",
					"text" : "route symbol",
					"numoutlets" : 2,
					"fontname" : "Arial",
					"outlettype" : [ "", "" ],
					"id" : "obj-54",
					"fontsize" : 12.0,
					"patching_rect" : [ 688.0, 798.0, 79.0, 20.0 ],
					"numinlets" : 1
				}

			}
, 			{
				"box" : 				{
					"maxclass" : "newobj",
					"text" : "route symbol",
					"numoutlets" : 2,
					"fontname" : "Arial",
					"outlettype" : [ "", "" ],
					"id" : "obj-49",
					"fontsize" : 12.0,
					"patching_rect" : [ 367.0, 804.0, 79.0, 20.0 ],
					"numinlets" : 1
				}

			}
, 			{
				"box" : 				{
					"maxclass" : "newobj",
					"text" : "route symbol",
					"numoutlets" : 2,
					"fontname" : "Arial",
					"outlettype" : [ "", "" ],
					"id" : "obj-44",
					"fontsize" : 12.0,
					"patching_rect" : [ 23.0, 797.0, 79.0, 20.0 ],
					"numinlets" : 1
				}

			}
, 			{
				"box" : 				{
					"maxclass" : "newobj",
					"text" : "route symbol",
					"numoutlets" : 2,
					"fontname" : "Arial",
					"outlettype" : [ "", "" ],
					"id" : "obj-37",
					"fontsize" : 12.0,
					"patching_rect" : [ 1006.0, 532.0, 79.0, 20.0 ],
					"numinlets" : 1
				}

			}
, 			{
				"box" : 				{
					"maxclass" : "newobj",
					"text" : "route symbol",
					"numoutlets" : 2,
					"fontname" : "Arial",
					"outlettype" : [ "", "" ],
					"id" : "obj-32",
					"fontsize" : 12.0,
					"patching_rect" : [ 672.0, 542.0, 79.0, 20.0 ],
					"numinlets" : 1
				}

			}
, 			{
				"box" : 				{
					"maxclass" : "newobj",
					"text" : "route symbol",
					"numoutlets" : 2,
					"fontname" : "Arial",
					"outlettype" : [ "", "" ],
					"id" : "obj-30",
					"fontsize" : 12.0,
					"patching_rect" : [ 350.0, 537.0, 79.0, 20.0 ],
					"numinlets" : 1
				}

			}
, 			{
				"box" : 				{
					"maxclass" : "newobj",
					"text" : "route symbol",
					"numoutlets" : 2,
					"fontname" : "Arial",
					"outlettype" : [ "", "" ],
					"id" : "obj-25",
					"fontsize" : 12.0,
					"patching_rect" : [ 19.0, 266.0, 79.0, 20.0 ],
					"numinlets" : 1
				}

			}
, 			{
				"box" : 				{
					"maxclass" : "newobj",
					"text" : "route symbol",
					"numoutlets" : 2,
					"fontname" : "Arial",
					"outlettype" : [ "", "" ],
					"id" : "obj-13",
					"fontsize" : 12.0,
					"patching_rect" : [ 2.0, 535.0, 79.0, 20.0 ],
					"numinlets" : 1
				}

			}
, 			{
				"box" : 				{
					"maxclass" : "message",
					"text" : "bang, set",
					"numoutlets" : 1,
					"fontname" : "Arial",
					"outlettype" : [ "" ],
					"id" : "obj-102",
					"fontsize" : 12.0,
					"patching_rect" : [ 986.630005, 819.669983, 60.0, 18.0 ],
					"numinlets" : 2
				}

			}
, 			{
				"box" : 				{
					"maxclass" : "newobj",
					"text" : "prepend append",
					"numoutlets" : 1,
					"fontname" : "Arial",
					"outlettype" : [ "" ],
					"id" : "obj-103",
					"fontsize" : 12.0,
					"patching_rect" : [ 1057.630005, 819.669983, 98.0, 20.0 ],
					"numinlets" : 1
				}

			}
, 			{
				"box" : 				{
					"maxclass" : "message",
					"text" : "bang, set",
					"numoutlets" : 1,
					"fontname" : "Arial",
					"outlettype" : [ "" ],
					"id" : "obj-100",
					"fontsize" : 12.0,
					"patching_rect" : [ 671.549988, 836.130005, 60.0, 18.0 ],
					"numinlets" : 2
				}

			}
, 			{
				"box" : 				{
					"maxclass" : "newobj",
					"text" : "prepend append",
					"numoutlets" : 1,
					"fontname" : "Arial",
					"outlettype" : [ "" ],
					"id" : "obj-101",
					"fontsize" : 12.0,
					"patching_rect" : [ 742.549988, 836.130005, 98.0, 20.0 ],
					"numinlets" : 1
				}

			}
, 			{
				"box" : 				{
					"maxclass" : "message",
					"text" : "bang, set",
					"numoutlets" : 1,
					"fontname" : "Arial",
					"outlettype" : [ "" ],
					"id" : "obj-98",
					"fontsize" : 12.0,
					"patching_rect" : [ 354.050018, 835.650024, 60.0, 18.0 ],
					"numinlets" : 2
				}

			}
, 			{
				"box" : 				{
					"maxclass" : "newobj",
					"text" : "prepend append",
					"numoutlets" : 1,
					"fontname" : "Arial",
					"outlettype" : [ "" ],
					"id" : "obj-99",
					"fontsize" : 12.0,
					"patching_rect" : [ 425.050018, 835.650024, 98.0, 20.0 ],
					"numinlets" : 1
				}

			}
, 			{
				"box" : 				{
					"maxclass" : "message",
					"text" : "bang, set",
					"numoutlets" : 1,
					"fontname" : "Arial",
					"outlettype" : [ "" ],
					"id" : "obj-96",
					"fontsize" : 12.0,
					"patching_rect" : [ 14.769998, 832.75, 60.0, 18.0 ],
					"numinlets" : 2
				}

			}
, 			{
				"box" : 				{
					"maxclass" : "newobj",
					"text" : "prepend append",
					"numoutlets" : 1,
					"fontname" : "Arial",
					"outlettype" : [ "" ],
					"id" : "obj-97",
					"fontsize" : 12.0,
					"patching_rect" : [ 85.769997, 832.75, 98.0, 20.0 ],
					"numinlets" : 1
				}

			}
, 			{
				"box" : 				{
					"maxclass" : "message",
					"text" : "bang, set",
					"numoutlets" : 1,
					"fontname" : "Arial",
					"outlettype" : [ "" ],
					"id" : "obj-94",
					"fontsize" : 12.0,
					"patching_rect" : [ 995.600037, 566.070007, 60.0, 18.0 ],
					"numinlets" : 2
				}

			}
, 			{
				"box" : 				{
					"maxclass" : "newobj",
					"text" : "prepend append",
					"numoutlets" : 1,
					"fontname" : "Arial",
					"outlettype" : [ "" ],
					"id" : "obj-95",
					"fontsize" : 12.0,
					"patching_rect" : [ 1066.599976, 566.070007, 98.0, 20.0 ],
					"numinlets" : 1
				}

			}
, 			{
				"box" : 				{
					"maxclass" : "message",
					"text" : "bang, set",
					"numoutlets" : 1,
					"fontname" : "Arial",
					"outlettype" : [ "" ],
					"id" : "obj-92",
					"fontsize" : 12.0,
					"patching_rect" : [ 666.0, 578.900024, 60.0, 18.0 ],
					"numinlets" : 2
				}

			}
, 			{
				"box" : 				{
					"maxclass" : "newobj",
					"text" : "prepend append",
					"numoutlets" : 1,
					"fontname" : "Arial",
					"outlettype" : [ "" ],
					"id" : "obj-93",
					"fontsize" : 12.0,
					"patching_rect" : [ 737.0, 578.900024, 98.0, 20.0 ],
					"numinlets" : 1
				}

			}
, 			{
				"box" : 				{
					"maxclass" : "message",
					"text" : "bang, set",
					"numoutlets" : 1,
					"fontname" : "Arial",
					"outlettype" : [ "" ],
					"id" : "obj-90",
					"fontsize" : 12.0,
					"patching_rect" : [ 347.290009, 572.370056, 60.0, 18.0 ],
					"numinlets" : 2
				}

			}
, 			{
				"box" : 				{
					"maxclass" : "newobj",
					"text" : "prepend append",
					"numoutlets" : 1,
					"fontname" : "Arial",
					"outlettype" : [ "" ],
					"id" : "obj-91",
					"fontsize" : 12.0,
					"patching_rect" : [ 418.290009, 572.370056, 98.0, 20.0 ],
					"numinlets" : 1
				}

			}
, 			{
				"box" : 				{
					"maxclass" : "message",
					"text" : "bang, set",
					"numoutlets" : 1,
					"fontname" : "Arial",
					"outlettype" : [ "" ],
					"id" : "obj-74",
					"fontsize" : 12.0,
					"patching_rect" : [ 1.718001, 574.552002, 60.0, 18.0 ],
					"numinlets" : 2
				}

			}
, 			{
				"box" : 				{
					"maxclass" : "newobj",
					"text" : "prepend append",
					"numoutlets" : 1,
					"fontname" : "Arial",
					"outlettype" : [ "" ],
					"id" : "obj-76",
					"fontsize" : 12.0,
					"patching_rect" : [ 72.718002, 574.552002, 98.0, 20.0 ],
					"numinlets" : 1
				}

			}
, 			{
				"box" : 				{
					"maxclass" : "message",
					"text" : "bang, set",
					"numoutlets" : 1,
					"fontname" : "Arial",
					"outlettype" : [ "" ],
					"id" : "obj-69",
					"fontsize" : 12.0,
					"patching_rect" : [ 16.0, 304.0, 60.0, 18.0 ],
					"numinlets" : 2
				}

			}
, 			{
				"box" : 				{
					"maxclass" : "newobj",
					"text" : "prepend append",
					"numoutlets" : 1,
					"fontname" : "Arial",
					"outlettype" : [ "" ],
					"id" : "obj-65",
					"fontsize" : 12.0,
					"patching_rect" : [ 87.0, 304.0, 98.0, 20.0 ],
					"numinlets" : 1
				}

			}
, 			{
				"box" : 				{
					"maxclass" : "message",
					"text" : "dump",
					"numoutlets" : 1,
					"fontname" : "Arial",
					"outlettype" : [ "" ],
					"id" : "obj-75",
					"fontsize" : 12.0,
					"patching_rect" : [ 280.0, 140.0, 41.0, 18.0 ],
					"numinlets" : 2
				}

			}
, 			{
				"box" : 				{
					"maxclass" : "message",
					"text" : "patcherfilepath none",
					"numoutlets" : 1,
					"fontname" : "Arial",
					"outlettype" : [ "" ],
					"id" : "obj-77",
					"fontsize" : 12.0,
					"patching_rect" : [ 28.0, 142.0, 119.0, 18.0 ],
					"numinlets" : 2
				}

			}
, 			{
				"box" : 				{
					"maxclass" : "newobj",
					"text" : "route patcherunload outputpatcherdata",
					"numoutlets" : 3,
					"fontname" : "Arial",
					"outlettype" : [ "", "", "" ],
					"id" : "obj-78",
					"fontsize" : 12.0,
					"patching_rect" : [ 181.0, 104.0, 217.0, 20.0 ],
					"numinlets" : 1
				}

			}
, 			{
				"box" : 				{
					"maxclass" : "message",
					"text" : "clear",
					"numoutlets" : 1,
					"fontname" : "Arial",
					"outlettype" : [ "" ],
					"id" : "obj-79",
					"fontsize" : 12.0,
					"patching_rect" : [ 148.0, 142.0, 37.0, 18.0 ],
					"numinlets" : 2
				}

			}
, 			{
				"box" : 				{
					"maxclass" : "newobj",
					"text" : "receive outputStateRecorder",
					"numoutlets" : 1,
					"fontname" : "Arial",
					"outlettype" : [ "" ],
					"id" : "obj-80",
					"fontsize" : 12.0,
					"patching_rect" : [ 181.0, 75.0, 163.0, 20.0 ],
					"numinlets" : 0
				}

			}
, 			{
				"box" : 				{
					"maxclass" : "newobj",
					"text" : "prepend store",
					"numoutlets" : 1,
					"fontname" : "Arial",
					"outlettype" : [ "" ],
					"id" : "obj-81",
					"fontsize" : 12.0,
					"patching_rect" : [ 110.0, 181.0, 85.0, 20.0 ],
					"numinlets" : 1
				}

			}
, 			{
				"box" : 				{
					"maxclass" : "message",
					"text" : "open",
					"numoutlets" : 1,
					"fontname" : "Arial",
					"outlettype" : [ "" ],
					"id" : "obj-72",
					"fontsize" : 12.0,
					"patching_rect" : [ 53.0, 447.0, 37.0, 18.0 ],
					"numinlets" : 2
				}

			}
, 			{
				"box" : 				{
					"maxclass" : "message",
					"text" : "doneDumping",
					"numoutlets" : 1,
					"fontname" : "Arial",
					"outlettype" : [ "" ],
					"id" : "obj-66",
					"fontsize" : 12.0,
					"patching_rect" : [ 119.0, 273.0, 85.0, 18.0 ],
					"numinlets" : 2
				}

			}
, 			{
				"box" : 				{
					"maxclass" : "newobj",
					"text" : "send writerReader",
					"numoutlets" : 0,
					"fontname" : "Arial",
					"id" : "obj-67",
					"fontsize" : 12.0,
					"patching_rect" : [ 140.0, 358.0, 109.0, 20.0 ],
					"numinlets" : 1
				}

			}
, 			{
				"box" : 				{
					"maxclass" : "newobj",
					"text" : "route symbol",
					"numoutlets" : 2,
					"fontname" : "Arial",
					"outlettype" : [ "", "" ],
					"id" : "obj-68",
					"fontsize" : 12.0,
					"patching_rect" : [ 200.0, 278.0, 79.0, 20.0 ],
					"numinlets" : 1
				}

			}
, 			{
				"box" : 				{
					"maxclass" : "newobj",
					"text" : "prepend insert 0 outputHandler",
					"numoutlets" : 1,
					"fontname" : "Arial",
					"outlettype" : [ "" ],
					"id" : "obj-70",
					"fontsize" : 12.0,
					"patching_rect" : [ 200.0, 307.0, 176.0, 20.0 ],
					"numinlets" : 1
				}

			}
, 			{
				"box" : 				{
					"maxclass" : "message",
					"numoutlets" : 1,
					"fontname" : "Arial",
					"outlettype" : [ "" ],
					"id" : "obj-71",
					"fontsize" : 12.0,
					"patching_rect" : [ 140.0, 332.0, 50.0, 18.0 ],
					"numinlets" : 2
				}

			}
, 			{
				"box" : 				{
					"maxclass" : "newobj",
					"text" : "coll outputState",
					"numoutlets" : 4,
					"fontname" : "Arial",
					"outlettype" : [ "", "", "", "" ],
					"id" : "obj-73",
					"fontsize" : 12.0,
					"patching_rect" : [ 110.0, 233.0, 93.0, 20.0 ],
					"numinlets" : 1,
					"save" : [ "#N", "coll", "outputState", ";" ],
					"saved_object_attributes" : 					{
						"embed" : 0
					}

				}

			}
, 			{
				"box" : 				{
					"maxclass" : "message",
					"text" : "doneDumping",
					"numoutlets" : 1,
					"fontname" : "Arial",
					"outlettype" : [ "" ],
					"id" : "obj-64",
					"fontsize" : 12.0,
					"patching_rect" : [ 1089.490112, 789.529968, 85.0, 18.0 ],
					"numinlets" : 2
				}

			}
, 			{
				"box" : 				{
					"maxclass" : "message",
					"text" : "doneDumping",
					"numoutlets" : 1,
					"fontname" : "Arial",
					"outlettype" : [ "" ],
					"id" : "obj-63",
					"fontsize" : 12.0,
					"patching_rect" : [ 773.370056, 800.369995, 85.0, 18.0 ],
					"numinlets" : 2
				}

			}
, 			{
				"box" : 				{
					"maxclass" : "message",
					"text" : "doneDumping",
					"numoutlets" : 1,
					"fontname" : "Arial",
					"outlettype" : [ "" ],
					"id" : "obj-62",
					"fontsize" : 12.0,
					"patching_rect" : [ 452.970001, 805.789978, 85.0, 18.0 ],
					"numinlets" : 2
				}

			}
, 			{
				"box" : 				{
					"maxclass" : "message",
					"text" : "doneDumping",
					"numoutlets" : 1,
					"fontname" : "Arial",
					"outlettype" : [ "" ],
					"id" : "obj-61",
					"fontsize" : 12.0,
					"patching_rect" : [ 110.0, 796.0, 85.0, 18.0 ],
					"numinlets" : 2
				}

			}
, 			{
				"box" : 				{
					"maxclass" : "message",
					"text" : "doneDumping",
					"numoutlets" : 1,
					"fontname" : "Arial",
					"outlettype" : [ "" ],
					"id" : "obj-60",
					"fontsize" : 12.0,
					"patching_rect" : [ 1091.76001, 535.320007, 85.0, 18.0 ],
					"numinlets" : 2
				}

			}
, 			{
				"box" : 				{
					"maxclass" : "message",
					"text" : "doneDumping",
					"numoutlets" : 1,
					"fontname" : "Arial",
					"outlettype" : [ "" ],
					"id" : "obj-59",
					"fontsize" : 12.0,
					"patching_rect" : [ 760.369995, 551.530029, 85.0, 18.0 ],
					"numinlets" : 2
				}

			}
, 			{
				"box" : 				{
					"maxclass" : "message",
					"text" : "doneDumping",
					"numoutlets" : 1,
					"fontname" : "Arial",
					"outlettype" : [ "" ],
					"id" : "obj-58",
					"fontsize" : 12.0,
					"patching_rect" : [ 442.130005, 546.210022, 85.0, 18.0 ],
					"numinlets" : 2
				}

			}
, 			{
				"box" : 				{
					"maxclass" : "message",
					"text" : "doneDumping",
					"numoutlets" : 1,
					"fontname" : "Arial",
					"outlettype" : [ "" ],
					"id" : "obj-57",
					"fontsize" : 12.0,
					"patching_rect" : [ 94.0, 545.0, 85.0, 18.0 ],
					"numinlets" : 2
				}

			}
, 			{
				"box" : 				{
					"maxclass" : "newobj",
					"text" : "send writerReader",
					"numoutlets" : 0,
					"fontname" : "Arial",
					"id" : "obj-52",
					"fontsize" : 12.0,
					"patching_rect" : [ 1128.48999, 876.529968, 109.0, 20.0 ],
					"numinlets" : 1
				}

			}
, 			{
				"box" : 				{
					"maxclass" : "newobj",
					"text" : "route symbol",
					"numoutlets" : 2,
					"fontname" : "Arial",
					"outlettype" : [ "", "" ],
					"id" : "obj-53",
					"fontsize" : 12.0,
					"patching_rect" : [ 1188.48999, 796.529968, 79.0, 20.0 ],
					"numinlets" : 1
				}

			}
, 			{
				"box" : 				{
					"maxclass" : "newobj",
					"text" : "prepend insert 0 cp8",
					"numoutlets" : 1,
					"fontname" : "Arial",
					"outlettype" : [ "" ],
					"id" : "obj-55",
					"fontsize" : 12.0,
					"patching_rect" : [ 1188.48999, 826.529968, 120.0, 20.0 ],
					"numinlets" : 1
				}

			}
, 			{
				"box" : 				{
					"maxclass" : "message",
					"text" : "insert 0 cp8 patcherfilepath symbol none",
					"linecount" : 6,
					"numoutlets" : 1,
					"fontname" : "Arial",
					"outlettype" : [ "" ],
					"id" : "obj-56",
					"fontsize" : 12.0,
					"patching_rect" : [ 1128.48999, 850.529968, 51.0, 87.0 ],
					"numinlets" : 2
				}

			}
, 			{
				"box" : 				{
					"maxclass" : "newobj",
					"text" : "send writerReader",
					"numoutlets" : 0,
					"fontname" : "Arial",
					"id" : "obj-47",
					"fontsize" : 12.0,
					"patching_rect" : [ 786.370056, 891.369995, 109.0, 20.0 ],
					"numinlets" : 1
				}

			}
, 			{
				"box" : 				{
					"maxclass" : "newobj",
					"text" : "route symbol",
					"numoutlets" : 2,
					"fontname" : "Arial",
					"outlettype" : [ "", "" ],
					"id" : "obj-48",
					"fontsize" : 12.0,
					"patching_rect" : [ 846.370056, 811.369995, 79.0, 20.0 ],
					"numinlets" : 1
				}

			}
, 			{
				"box" : 				{
					"maxclass" : "newobj",
					"text" : "prepend insert 0 cp7",
					"numoutlets" : 1,
					"fontname" : "Arial",
					"outlettype" : [ "" ],
					"id" : "obj-50",
					"fontsize" : 12.0,
					"patching_rect" : [ 846.370056, 841.369995, 120.0, 20.0 ],
					"numinlets" : 1
				}

			}
, 			{
				"box" : 				{
					"maxclass" : "message",
					"numoutlets" : 1,
					"fontname" : "Arial",
					"outlettype" : [ "" ],
					"id" : "obj-51",
					"fontsize" : 12.0,
					"patching_rect" : [ 786.370056, 865.369995, 50.0, 18.0 ],
					"numinlets" : 2
				}

			}
, 			{
				"box" : 				{
					"maxclass" : "newobj",
					"text" : "send writerReader",
					"numoutlets" : 0,
					"fontname" : "Arial",
					"id" : "obj-42",
					"fontsize" : 12.0,
					"patching_rect" : [ 482.970001, 893.789978, 109.0, 20.0 ],
					"numinlets" : 1
				}

			}
, 			{
				"box" : 				{
					"maxclass" : "newobj",
					"text" : "route symbol",
					"numoutlets" : 2,
					"fontname" : "Arial",
					"outlettype" : [ "", "" ],
					"id" : "obj-43",
					"fontsize" : 12.0,
					"patching_rect" : [ 542.970032, 813.789978, 79.0, 20.0 ],
					"numinlets" : 1
				}

			}
, 			{
				"box" : 				{
					"maxclass" : "newobj",
					"text" : "prepend insert 0 cp6",
					"numoutlets" : 1,
					"fontname" : "Arial",
					"outlettype" : [ "" ],
					"id" : "obj-45",
					"fontsize" : 12.0,
					"patching_rect" : [ 542.970032, 843.789978, 120.0, 20.0 ],
					"numinlets" : 1
				}

			}
, 			{
				"box" : 				{
					"maxclass" : "message",
					"numoutlets" : 1,
					"fontname" : "Arial",
					"outlettype" : [ "" ],
					"id" : "obj-46",
					"fontsize" : 12.0,
					"patching_rect" : [ 482.970001, 867.789978, 50.0, 18.0 ],
					"numinlets" : 2
				}

			}
, 			{
				"box" : 				{
					"maxclass" : "newobj",
					"text" : "send writerReader",
					"numoutlets" : 0,
					"fontname" : "Arial",
					"id" : "obj-35",
					"fontsize" : 12.0,
					"patching_rect" : [ 129.0, 895.0, 109.0, 20.0 ],
					"numinlets" : 1
				}

			}
, 			{
				"box" : 				{
					"maxclass" : "newobj",
					"text" : "route symbol",
					"numoutlets" : 2,
					"fontname" : "Arial",
					"outlettype" : [ "", "" ],
					"id" : "obj-36",
					"fontsize" : 12.0,
					"patching_rect" : [ 189.0, 815.0, 79.0, 20.0 ],
					"numinlets" : 1
				}

			}
, 			{
				"box" : 				{
					"maxclass" : "newobj",
					"text" : "prepend insert 0 cp5",
					"numoutlets" : 1,
					"fontname" : "Arial",
					"outlettype" : [ "" ],
					"id" : "obj-38",
					"fontsize" : 12.0,
					"patching_rect" : [ 189.0, 845.0, 120.0, 20.0 ],
					"numinlets" : 1
				}

			}
, 			{
				"box" : 				{
					"maxclass" : "message",
					"numoutlets" : 1,
					"fontname" : "Arial",
					"outlettype" : [ "" ],
					"id" : "obj-39",
					"fontsize" : 12.0,
					"patching_rect" : [ 129.0, 869.0, 50.0, 18.0 ],
					"numinlets" : 2
				}

			}
, 			{
				"box" : 				{
					"maxclass" : "newobj",
					"text" : "send writerReader",
					"numoutlets" : 0,
					"fontname" : "Arial",
					"id" : "obj-28",
					"fontsize" : 12.0,
					"patching_rect" : [ 1127.76001, 620.320007, 109.0, 20.0 ],
					"numinlets" : 1
				}

			}
, 			{
				"box" : 				{
					"maxclass" : "newobj",
					"text" : "route symbol",
					"numoutlets" : 2,
					"fontname" : "Arial",
					"outlettype" : [ "", "" ],
					"id" : "obj-29",
					"fontsize" : 12.0,
					"patching_rect" : [ 1187.76001, 540.320007, 79.0, 20.0 ],
					"numinlets" : 1
				}

			}
, 			{
				"box" : 				{
					"maxclass" : "newobj",
					"text" : "prepend insert 0 cp4",
					"numoutlets" : 1,
					"fontname" : "Arial",
					"outlettype" : [ "" ],
					"id" : "obj-31",
					"fontsize" : 12.0,
					"patching_rect" : [ 1187.76001, 570.320007, 120.0, 20.0 ],
					"numinlets" : 1
				}

			}
, 			{
				"box" : 				{
					"maxclass" : "message",
					"numoutlets" : 1,
					"fontname" : "Arial",
					"outlettype" : [ "" ],
					"id" : "obj-33",
					"fontsize" : 12.0,
					"patching_rect" : [ 1127.76001, 594.320007, 50.0, 18.0 ],
					"numinlets" : 2
				}

			}
, 			{
				"box" : 				{
					"maxclass" : "newobj",
					"text" : "send writerReader",
					"numoutlets" : 0,
					"fontname" : "Arial",
					"id" : "obj-23",
					"fontsize" : 12.0,
					"patching_rect" : [ 786.369995, 636.530029, 109.0, 20.0 ],
					"numinlets" : 1
				}

			}
, 			{
				"box" : 				{
					"maxclass" : "newobj",
					"text" : "route symbol",
					"numoutlets" : 2,
					"fontname" : "Arial",
					"outlettype" : [ "", "" ],
					"id" : "obj-24",
					"fontsize" : 12.0,
					"patching_rect" : [ 846.369995, 556.530029, 79.0, 20.0 ],
					"numinlets" : 1
				}

			}
, 			{
				"box" : 				{
					"maxclass" : "newobj",
					"text" : "prepend insert 0 cp3",
					"numoutlets" : 1,
					"fontname" : "Arial",
					"outlettype" : [ "" ],
					"id" : "obj-26",
					"fontsize" : 12.0,
					"patching_rect" : [ 846.369995, 586.530029, 120.0, 20.0 ],
					"numinlets" : 1
				}

			}
, 			{
				"box" : 				{
					"maxclass" : "message",
					"numoutlets" : 1,
					"fontname" : "Arial",
					"outlettype" : [ "" ],
					"id" : "obj-27",
					"fontsize" : 12.0,
					"patching_rect" : [ 786.369995, 610.530029, 50.0, 18.0 ],
					"numinlets" : 2
				}

			}
, 			{
				"box" : 				{
					"maxclass" : "newobj",
					"text" : "send writerReader",
					"numoutlets" : 0,
					"fontname" : "Arial",
					"id" : "obj-6",
					"fontsize" : 12.0,
					"patching_rect" : [ 463.130005, 631.210022, 109.0, 20.0 ],
					"numinlets" : 1
				}

			}
, 			{
				"box" : 				{
					"maxclass" : "newobj",
					"text" : "route symbol",
					"numoutlets" : 2,
					"fontname" : "Arial",
					"outlettype" : [ "", "" ],
					"id" : "obj-11",
					"fontsize" : 12.0,
					"patching_rect" : [ 523.130005, 551.210022, 79.0, 20.0 ],
					"numinlets" : 1
				}

			}
, 			{
				"box" : 				{
					"maxclass" : "newobj",
					"text" : "prepend insert 0 cp2",
					"numoutlets" : 1,
					"fontname" : "Arial",
					"outlettype" : [ "" ],
					"id" : "obj-21",
					"fontsize" : 12.0,
					"patching_rect" : [ 523.130005, 581.210022, 120.0, 20.0 ],
					"numinlets" : 1
				}

			}
, 			{
				"box" : 				{
					"maxclass" : "message",
					"numoutlets" : 1,
					"fontname" : "Arial",
					"outlettype" : [ "" ],
					"id" : "obj-22",
					"fontsize" : 12.0,
					"patching_rect" : [ 463.130005, 605.210022, 50.0, 18.0 ],
					"numinlets" : 2
				}

			}
, 			{
				"box" : 				{
					"maxclass" : "newobj",
					"text" : "send writerReader",
					"numoutlets" : 0,
					"fontname" : "Arial",
					"id" : "obj-41",
					"fontsize" : 12.0,
					"patching_rect" : [ 114.0, 630.0, 109.0, 20.0 ],
					"numinlets" : 1
				}

			}
, 			{
				"box" : 				{
					"maxclass" : "newobj",
					"text" : "route symbol",
					"numoutlets" : 2,
					"fontname" : "Arial",
					"outlettype" : [ "", "" ],
					"id" : "obj-40",
					"fontsize" : 12.0,
					"patching_rect" : [ 174.0, 550.0, 79.0, 20.0 ],
					"numinlets" : 1
				}

			}
, 			{
				"box" : 				{
					"maxclass" : "newobj",
					"text" : "prepend insert 0 cp1",
					"numoutlets" : 1,
					"fontname" : "Arial",
					"outlettype" : [ "" ],
					"id" : "obj-20",
					"fontsize" : 12.0,
					"patching_rect" : [ 174.0, 580.0, 120.0, 20.0 ],
					"numinlets" : 1
				}

			}
, 			{
				"box" : 				{
					"maxclass" : "message",
					"numoutlets" : 1,
					"fontname" : "Arial",
					"outlettype" : [ "" ],
					"id" : "obj-14",
					"fontsize" : 12.0,
					"patching_rect" : [ 114.0, 604.0, 50.0, 18.0 ],
					"numinlets" : 2
				}

			}
, 			{
				"box" : 				{
					"maxclass" : "newobj",
					"text" : "collMessageReceiver cp8stateRecorder",
					"numoutlets" : 1,
					"fontname" : "Arial",
					"outlettype" : [ "" ],
					"id" : "obj-10",
					"fontsize" : 12.0,
					"patching_rect" : [ 1068.490112, 721.529968, 223.0, 20.0 ],
					"numinlets" : 1
				}

			}
, 			{
				"box" : 				{
					"maxclass" : "newobj",
					"text" : "collMessageReceiver cp7stateRecorder",
					"numoutlets" : 1,
					"fontname" : "Arial",
					"outlettype" : [ "" ],
					"id" : "obj-9",
					"fontsize" : 12.0,
					"patching_rect" : [ 756.370056, 726.369995, 223.0, 20.0 ],
					"numinlets" : 1
				}

			}
, 			{
				"box" : 				{
					"maxclass" : "newobj",
					"text" : "collMessageReceiver cp5stateRecorder",
					"numoutlets" : 1,
					"fontname" : "Arial",
					"outlettype" : [ "" ],
					"id" : "obj-8",
					"fontsize" : 12.0,
					"patching_rect" : [ 99.0, 730.0, 223.0, 20.0 ],
					"numinlets" : 1
				}

			}
, 			{
				"box" : 				{
					"maxclass" : "newobj",
					"text" : "collMessageReceiver cp6stateRecorder",
					"numoutlets" : 1,
					"fontname" : "Arial",
					"outlettype" : [ "" ],
					"id" : "obj-7",
					"fontsize" : 12.0,
					"patching_rect" : [ 437.970001, 728.789978, 223.0, 20.0 ],
					"numinlets" : 1
				}

			}
, 			{
				"box" : 				{
					"maxclass" : "newobj",
					"text" : "collMessageReceiver cp4stateRecorder",
					"numoutlets" : 1,
					"fontname" : "Arial",
					"outlettype" : [ "" ],
					"id" : "obj-5",
					"fontsize" : 12.0,
					"patching_rect" : [ 1084.76001, 466.320007, 223.0, 20.0 ],
					"numinlets" : 1
				}

			}
, 			{
				"box" : 				{
					"maxclass" : "newobj",
					"text" : "collMessageReceiver cp3stateRecorder",
					"numoutlets" : 1,
					"fontname" : "Arial",
					"outlettype" : [ "" ],
					"id" : "obj-4",
					"fontsize" : 12.0,
					"patching_rect" : [ 741.369995, 466.529999, 223.0, 20.0 ],
					"numinlets" : 1
				}

			}
, 			{
				"box" : 				{
					"maxclass" : "newobj",
					"text" : "collMessageReceiver cp2stateRecorder",
					"numoutlets" : 1,
					"fontname" : "Arial",
					"outlettype" : [ "" ],
					"id" : "obj-2",
					"fontsize" : 12.0,
					"patching_rect" : [ 433.130005, 476.209991, 223.0, 20.0 ],
					"numinlets" : 1
				}

			}
, 			{
				"box" : 				{
					"maxclass" : "newobj",
					"text" : "collMessageReceiver cp1stateRecorder",
					"numoutlets" : 1,
					"fontname" : "Arial",
					"outlettype" : [ "" ],
					"id" : "obj-1",
					"fontsize" : 12.0,
					"patching_rect" : [ 99.0, 475.0, 223.0, 20.0 ],
					"numinlets" : 1
				}

			}
, 			{
				"box" : 				{
					"maxclass" : "newobj",
					"text" : "coll cp8state",
					"numoutlets" : 4,
					"fontname" : "Arial",
					"outlettype" : [ "", "", "", "" ],
					"id" : "obj-17",
					"fontsize" : 12.0,
					"patching_rect" : [ 1068.490112, 750.529968, 77.0, 20.0 ],
					"numinlets" : 1,
					"save" : [ "#N", "coll", "cp8state", ";" ],
					"saved_object_attributes" : 					{
						"embed" : 0
					}

				}

			}
, 			{
				"box" : 				{
					"maxclass" : "newobj",
					"text" : "coll cp7state",
					"numoutlets" : 4,
					"fontname" : "Arial",
					"outlettype" : [ "", "", "", "" ],
					"id" : "obj-18",
					"fontsize" : 12.0,
					"patching_rect" : [ 756.370056, 755.369995, 77.0, 20.0 ],
					"numinlets" : 1,
					"save" : [ "#N", "coll", "cp7state", ";" ],
					"saved_object_attributes" : 					{
						"embed" : 0
					}

				}

			}
, 			{
				"box" : 				{
					"maxclass" : "newobj",
					"text" : "coll cp6state",
					"numoutlets" : 4,
					"fontname" : "Arial",
					"outlettype" : [ "", "", "", "" ],
					"id" : "obj-19",
					"fontsize" : 12.0,
					"patching_rect" : [ 436.970001, 758.789978, 77.0, 20.0 ],
					"numinlets" : 1,
					"save" : [ "#N", "coll", "cp6state", ";" ],
					"saved_object_attributes" : 					{
						"embed" : 0
					}

				}

			}
, 			{
				"box" : 				{
					"maxclass" : "newobj",
					"text" : "coll cp4state",
					"numoutlets" : 4,
					"fontname" : "Arial",
					"outlettype" : [ "", "", "", "" ],
					"id" : "obj-34",
					"fontsize" : 12.0,
					"patching_rect" : [ 1082.76001, 495.320007, 77.0, 20.0 ],
					"numinlets" : 1,
					"save" : [ "#N", "coll", "cp4state", ";" ],
					"saved_object_attributes" : 					{
						"embed" : 0
					}

				}

			}
, 			{
				"box" : 				{
					"maxclass" : "newobj",
					"text" : "coll cp5state",
					"numoutlets" : 4,
					"fontname" : "Arial",
					"outlettype" : [ "", "", "", "" ],
					"id" : "obj-15",
					"fontsize" : 12.0,
					"patching_rect" : [ 99.0, 760.0, 77.0, 20.0 ],
					"numinlets" : 1,
					"save" : [ "#N", "coll", "cp5state", ";" ],
					"saved_object_attributes" : 					{
						"embed" : 0
					}

				}

			}
, 			{
				"box" : 				{
					"maxclass" : "newobj",
					"text" : "coll cp3state",
					"numoutlets" : 4,
					"fontname" : "Arial",
					"outlettype" : [ "", "", "", "" ],
					"id" : "obj-16",
					"fontsize" : 12.0,
					"patching_rect" : [ 741.369995, 496.529999, 77.0, 20.0 ],
					"numinlets" : 1,
					"save" : [ "#N", "coll", "cp3state", ";" ],
					"saved_object_attributes" : 					{
						"embed" : 0
					}

				}

			}
, 			{
				"box" : 				{
					"maxclass" : "newobj",
					"text" : "coll cp2state",
					"numoutlets" : 4,
					"fontname" : "Arial",
					"outlettype" : [ "", "", "", "" ],
					"id" : "obj-12",
					"fontsize" : 12.0,
					"patching_rect" : [ 432.130005, 506.209991, 77.0, 20.0 ],
					"numinlets" : 1,
					"save" : [ "#N", "coll", "cp2state", ";" ],
					"saved_object_attributes" : 					{
						"embed" : 0
					}

				}

			}
, 			{
				"box" : 				{
					"maxclass" : "newobj",
					"text" : "coll cp1state",
					"numoutlets" : 4,
					"fontname" : "Arial",
					"outlettype" : [ "", "", "", "" ],
					"id" : "obj-3",
					"fontsize" : 12.0,
					"patching_rect" : [ 99.0, 504.0, 77.0, 20.0 ],
					"numinlets" : 1,
					"save" : [ "#N", "coll", "cp1state", ";" ],
					"saved_object_attributes" : 					{
						"embed" : 0
					}

				}

			}
 ],
		"lines" : [ 			{
				"patchline" : 				{
					"source" : [ "obj-78", 2 ],
					"destination" : [ "obj-81", 0 ],
					"hidden" : 0,
					"midpoints" : [ 388.5, 175.0, 119.5, 175.0 ]
				}

			}
, 			{
				"patchline" : 				{
					"source" : [ "obj-78", 0 ],
					"destination" : [ "obj-79", 0 ],
					"hidden" : 0,
					"midpoints" : [ 190.5, 130.0, 157.5, 130.0 ]
				}

			}
, 			{
				"patchline" : 				{
					"source" : [ "obj-78", 0 ],
					"destination" : [ "obj-77", 0 ],
					"hidden" : 0,
					"midpoints" : [ 190.5, 130.0, 37.5, 130.0 ]
				}

			}
, 			{
				"patchline" : 				{
					"source" : [ "obj-78", 1 ],
					"destination" : [ "obj-75", 0 ],
					"hidden" : 0,
					"midpoints" : [  ]
				}

			}
, 			{
				"patchline" : 				{
					"source" : [ "obj-80", 0 ],
					"destination" : [ "obj-78", 0 ],
					"hidden" : 0,
					"midpoints" : [  ]
				}

			}
, 			{
				"patchline" : 				{
					"source" : [ "obj-102", 0 ],
					"destination" : [ "obj-56", 0 ],
					"hidden" : 0,
					"midpoints" : [ 996.130005, 847.0, 1137.98999, 847.0 ]
				}

			}
, 			{
				"patchline" : 				{
					"source" : [ "obj-103", 0 ],
					"destination" : [ "obj-56", 0 ],
					"hidden" : 0,
					"midpoints" : [ 1067.130005, 847.0, 1137.98999, 847.0 ]
				}

			}
, 			{
				"patchline" : 				{
					"source" : [ "obj-100", 0 ],
					"destination" : [ "obj-51", 0 ],
					"hidden" : 0,
					"midpoints" : [ 681.049988, 860.309998, 795.870056, 860.309998 ]
				}

			}
, 			{
				"patchline" : 				{
					"source" : [ "obj-101", 0 ],
					"destination" : [ "obj-51", 0 ],
					"hidden" : 0,
					"midpoints" : [ 752.049988, 860.309998, 795.870056, 860.309998 ]
				}

			}
, 			{
				"patchline" : 				{
					"source" : [ "obj-99", 0 ],
					"destination" : [ "obj-46", 0 ],
					"hidden" : 0,
					"midpoints" : [ 434.550018, 861.52002, 492.470001, 861.52002 ]
				}

			}
, 			{
				"patchline" : 				{
					"source" : [ "obj-98", 0 ],
					"destination" : [ "obj-46", 0 ],
					"hidden" : 0,
					"midpoints" : [ 363.550018, 862.730042, 492.470001, 862.730042 ]
				}

			}
, 			{
				"patchline" : 				{
					"source" : [ "obj-96", 0 ],
					"destination" : [ "obj-39", 0 ],
					"hidden" : 0,
					"midpoints" : [ 24.269997, 861.52002, 138.5, 861.52002 ]
				}

			}
, 			{
				"patchline" : 				{
					"source" : [ "obj-97", 0 ],
					"destination" : [ "obj-39", 0 ],
					"hidden" : 0,
					"midpoints" : [ 95.269997, 861.52002, 138.5, 861.52002 ]
				}

			}
, 			{
				"patchline" : 				{
					"source" : [ "obj-94", 0 ],
					"destination" : [ "obj-33", 0 ],
					"hidden" : 0,
					"midpoints" : [ 1005.100037, 589.27002, 1137.26001, 589.27002 ]
				}

			}
, 			{
				"patchline" : 				{
					"source" : [ "obj-95", 0 ],
					"destination" : [ "obj-33", 0 ],
					"hidden" : 0,
					"midpoints" : [ 1076.099976, 589.27002, 1137.26001, 589.27002 ]
				}

			}
, 			{
				"patchline" : 				{
					"source" : [ "obj-92", 0 ],
					"destination" : [ "obj-27", 0 ],
					"hidden" : 0,
					"midpoints" : [ 675.5, 603.790039, 795.869995, 603.790039 ]
				}

			}
, 			{
				"patchline" : 				{
					"source" : [ "obj-93", 0 ],
					"destination" : [ "obj-27", 0 ],
					"hidden" : 0,
					"midpoints" : [ 746.5, 602.580017, 795.869995, 602.580017 ]
				}

			}
, 			{
				"patchline" : 				{
					"source" : [ "obj-90", 0 ],
					"destination" : [ "obj-22", 0 ],
					"hidden" : 0,
					"midpoints" : [ 356.790009, 597.73999, 472.630005, 597.73999 ]
				}

			}
, 			{
				"patchline" : 				{
					"source" : [ "obj-91", 0 ],
					"destination" : [ "obj-22", 0 ],
					"hidden" : 0,
					"midpoints" : [ 427.790009, 598.950012, 472.630005, 598.950012 ]
				}

			}
, 			{
				"patchline" : 				{
					"source" : [ "obj-74", 0 ],
					"destination" : [ "obj-14", 0 ],
					"hidden" : 0,
					"midpoints" : [ 11.218001, 595.320007, 123.5, 595.320007 ]
				}

			}
, 			{
				"patchline" : 				{
					"source" : [ "obj-76", 0 ],
					"destination" : [ "obj-14", 0 ],
					"hidden" : 0,
					"midpoints" : [ 82.218002, 597.73999, 123.5, 597.73999 ]
				}

			}
, 			{
				"patchline" : 				{
					"source" : [ "obj-69", 0 ],
					"destination" : [ "obj-71", 0 ],
					"hidden" : 0,
					"midpoints" : [ 25.5, 326.0, 149.5, 326.0 ]
				}

			}
, 			{
				"patchline" : 				{
					"source" : [ "obj-65", 0 ],
					"destination" : [ "obj-71", 0 ],
					"hidden" : 0,
					"midpoints" : [ 96.5, 328.0, 149.5, 328.0 ]
				}

			}
, 			{
				"patchline" : 				{
					"source" : [ "obj-72", 0 ],
					"destination" : [ "obj-3", 0 ],
					"hidden" : 0,
					"midpoints" : [  ]
				}

			}
, 			{
				"patchline" : 				{
					"source" : [ "obj-10", 0 ],
					"destination" : [ "obj-17", 0 ],
					"hidden" : 0,
					"midpoints" : [  ]
				}

			}
, 			{
				"patchline" : 				{
					"source" : [ "obj-9", 0 ],
					"destination" : [ "obj-18", 0 ],
					"hidden" : 0,
					"midpoints" : [  ]
				}

			}
, 			{
				"patchline" : 				{
					"source" : [ "obj-8", 0 ],
					"destination" : [ "obj-15", 0 ],
					"hidden" : 0,
					"midpoints" : [  ]
				}

			}
, 			{
				"patchline" : 				{
					"source" : [ "obj-7", 0 ],
					"destination" : [ "obj-19", 0 ],
					"hidden" : 0,
					"midpoints" : [  ]
				}

			}
, 			{
				"patchline" : 				{
					"source" : [ "obj-5", 0 ],
					"destination" : [ "obj-34", 0 ],
					"hidden" : 0,
					"midpoints" : [  ]
				}

			}
, 			{
				"patchline" : 				{
					"source" : [ "obj-4", 0 ],
					"destination" : [ "obj-16", 0 ],
					"hidden" : 0,
					"midpoints" : [  ]
				}

			}
, 			{
				"patchline" : 				{
					"source" : [ "obj-2", 0 ],
					"destination" : [ "obj-12", 0 ],
					"hidden" : 0,
					"midpoints" : [  ]
				}

			}
, 			{
				"patchline" : 				{
					"source" : [ "obj-20", 0 ],
					"destination" : [ "obj-14", 1 ],
					"hidden" : 0,
					"midpoints" : [ 183.5, 604.0 ]
				}

			}
, 			{
				"patchline" : 				{
					"source" : [ "obj-40", 0 ],
					"destination" : [ "obj-20", 0 ],
					"hidden" : 0,
					"midpoints" : [ 183.5, 568.0, 183.5, 568.0 ]
				}

			}
, 			{
				"patchline" : 				{
					"source" : [ "obj-3", 1 ],
					"destination" : [ "obj-40", 0 ],
					"hidden" : 0,
					"midpoints" : [ 127.833336, 537.0, 183.5, 537.0 ]
				}

			}
, 			{
				"patchline" : 				{
					"source" : [ "obj-14", 0 ],
					"destination" : [ "obj-41", 0 ],
					"hidden" : 0,
					"midpoints" : [  ]
				}

			}
, 			{
				"patchline" : 				{
					"source" : [ "obj-22", 0 ],
					"destination" : [ "obj-6", 0 ],
					"hidden" : 0,
					"midpoints" : [  ]
				}

			}
, 			{
				"patchline" : 				{
					"source" : [ "obj-27", 0 ],
					"destination" : [ "obj-23", 0 ],
					"hidden" : 0,
					"midpoints" : [  ]
				}

			}
, 			{
				"patchline" : 				{
					"source" : [ "obj-33", 0 ],
					"destination" : [ "obj-28", 0 ],
					"hidden" : 0,
					"midpoints" : [  ]
				}

			}
, 			{
				"patchline" : 				{
					"source" : [ "obj-12", 1 ],
					"destination" : [ "obj-11", 0 ],
					"hidden" : 0,
					"midpoints" : [ 460.963348, 546.210022, 532.630005, 546.210022 ]
				}

			}
, 			{
				"patchline" : 				{
					"source" : [ "obj-21", 0 ],
					"destination" : [ "obj-22", 1 ],
					"hidden" : 0,
					"midpoints" : [ 532.630005, 605.210022 ]
				}

			}
, 			{
				"patchline" : 				{
					"source" : [ "obj-11", 0 ],
					"destination" : [ "obj-21", 0 ],
					"hidden" : 0,
					"midpoints" : [ 532.630005, 569.210022, 532.630005, 569.210022 ]
				}

			}
, 			{
				"patchline" : 				{
					"source" : [ "obj-16", 1 ],
					"destination" : [ "obj-24", 0 ],
					"hidden" : 0,
					"midpoints" : [ 770.203308, 543.530029, 855.869995, 543.530029 ]
				}

			}
, 			{
				"patchline" : 				{
					"source" : [ "obj-34", 1 ],
					"destination" : [ "obj-29", 0 ],
					"hidden" : 0,
					"midpoints" : [ 1111.593384, 526.320007, 1197.26001, 526.320007 ]
				}

			}
, 			{
				"patchline" : 				{
					"source" : [ "obj-26", 0 ],
					"destination" : [ "obj-27", 1 ],
					"hidden" : 0,
					"midpoints" : [ 855.869995, 610.530029 ]
				}

			}
, 			{
				"patchline" : 				{
					"source" : [ "obj-24", 0 ],
					"destination" : [ "obj-26", 0 ],
					"hidden" : 0,
					"midpoints" : [ 855.869995, 574.530029, 855.869995, 574.530029 ]
				}

			}
, 			{
				"patchline" : 				{
					"source" : [ "obj-31", 0 ],
					"destination" : [ "obj-33", 1 ],
					"hidden" : 0,
					"midpoints" : [ 1197.26001, 594.320007 ]
				}

			}
, 			{
				"patchline" : 				{
					"source" : [ "obj-29", 0 ],
					"destination" : [ "obj-31", 0 ],
					"hidden" : 0,
					"midpoints" : [ 1197.26001, 558.320007, 1197.26001, 558.320007 ]
				}

			}
, 			{
				"patchline" : 				{
					"source" : [ "obj-39", 0 ],
					"destination" : [ "obj-35", 0 ],
					"hidden" : 0,
					"midpoints" : [  ]
				}

			}
, 			{
				"patchline" : 				{
					"source" : [ "obj-46", 0 ],
					"destination" : [ "obj-42", 0 ],
					"hidden" : 0,
					"midpoints" : [  ]
				}

			}
, 			{
				"patchline" : 				{
					"source" : [ "obj-51", 0 ],
					"destination" : [ "obj-47", 0 ],
					"hidden" : 0,
					"midpoints" : [  ]
				}

			}
, 			{
				"patchline" : 				{
					"source" : [ "obj-56", 0 ],
					"destination" : [ "obj-52", 0 ],
					"hidden" : 0,
					"midpoints" : [  ]
				}

			}
, 			{
				"patchline" : 				{
					"source" : [ "obj-15", 1 ],
					"destination" : [ "obj-36", 0 ],
					"hidden" : 0,
					"midpoints" : [ 127.833336, 802.0, 198.5, 802.0 ]
				}

			}
, 			{
				"patchline" : 				{
					"source" : [ "obj-19", 1 ],
					"destination" : [ "obj-43", 0 ],
					"hidden" : 0,
					"midpoints" : [ 465.803345, 798.789978, 552.470032, 798.789978 ]
				}

			}
, 			{
				"patchline" : 				{
					"source" : [ "obj-18", 1 ],
					"destination" : [ "obj-48", 0 ],
					"hidden" : 0,
					"midpoints" : [ 785.203369, 794.369995, 855.870056, 794.369995 ]
				}

			}
, 			{
				"patchline" : 				{
					"source" : [ "obj-17", 1 ],
					"destination" : [ "obj-53", 0 ],
					"hidden" : 0,
					"midpoints" : [ 1097.323486, 784.529968, 1197.98999, 784.529968 ]
				}

			}
, 			{
				"patchline" : 				{
					"source" : [ "obj-38", 0 ],
					"destination" : [ "obj-39", 1 ],
					"hidden" : 0,
					"midpoints" : [ 198.5, 869.0 ]
				}

			}
, 			{
				"patchline" : 				{
					"source" : [ "obj-36", 0 ],
					"destination" : [ "obj-38", 0 ],
					"hidden" : 0,
					"midpoints" : [ 198.5, 833.0, 198.5, 833.0 ]
				}

			}
, 			{
				"patchline" : 				{
					"source" : [ "obj-45", 0 ],
					"destination" : [ "obj-46", 1 ],
					"hidden" : 0,
					"midpoints" : [ 552.470032, 867.789978 ]
				}

			}
, 			{
				"patchline" : 				{
					"source" : [ "obj-43", 0 ],
					"destination" : [ "obj-45", 0 ],
					"hidden" : 0,
					"midpoints" : [ 552.470032, 831.789978, 552.470032, 831.789978 ]
				}

			}
, 			{
				"patchline" : 				{
					"source" : [ "obj-50", 0 ],
					"destination" : [ "obj-51", 1 ],
					"hidden" : 0,
					"midpoints" : [ 855.870056, 865.369995 ]
				}

			}
, 			{
				"patchline" : 				{
					"source" : [ "obj-48", 0 ],
					"destination" : [ "obj-50", 0 ],
					"hidden" : 0,
					"midpoints" : [ 855.870056, 829.369995, 855.870056, 829.369995 ]
				}

			}
, 			{
				"patchline" : 				{
					"source" : [ "obj-55", 0 ],
					"destination" : [ "obj-56", 1 ],
					"hidden" : 0,
					"midpoints" : [ 1197.98999, 850.529968 ]
				}

			}
, 			{
				"patchline" : 				{
					"source" : [ "obj-53", 0 ],
					"destination" : [ "obj-55", 0 ],
					"hidden" : 0,
					"midpoints" : [ 1197.98999, 814.529968, 1197.98999, 814.529968 ]
				}

			}
, 			{
				"patchline" : 				{
					"source" : [ "obj-1", 0 ],
					"destination" : [ "obj-3", 0 ],
					"hidden" : 0,
					"midpoints" : [  ]
				}

			}
, 			{
				"patchline" : 				{
					"source" : [ "obj-3", 3 ],
					"destination" : [ "obj-57", 0 ],
					"hidden" : 0,
					"midpoints" : [ 166.5, 541.0, 103.5, 541.0 ]
				}

			}
, 			{
				"patchline" : 				{
					"source" : [ "obj-57", 0 ],
					"destination" : [ "obj-41", 0 ],
					"hidden" : 0,
					"midpoints" : [ 103.5, 628.0, 123.5, 628.0 ]
				}

			}
, 			{
				"patchline" : 				{
					"source" : [ "obj-12", 3 ],
					"destination" : [ "obj-58", 0 ],
					"hidden" : 0,
					"midpoints" : [ 499.630005, 537.210022, 451.630005, 537.210022 ]
				}

			}
, 			{
				"patchline" : 				{
					"source" : [ "obj-58", 0 ],
					"destination" : [ "obj-6", 0 ],
					"hidden" : 0,
					"midpoints" : [ 451.630005, 629.210022, 472.630005, 629.210022 ]
				}

			}
, 			{
				"patchline" : 				{
					"source" : [ "obj-16", 3 ],
					"destination" : [ "obj-59", 0 ],
					"hidden" : 0,
					"midpoints" : [ 808.869995, 546.530029, 769.869995, 546.530029 ]
				}

			}
, 			{
				"patchline" : 				{
					"source" : [ "obj-59", 0 ],
					"destination" : [ "obj-23", 0 ],
					"hidden" : 0,
					"midpoints" : [ 769.869995, 631.530029, 795.869995, 631.530029 ]
				}

			}
, 			{
				"patchline" : 				{
					"source" : [ "obj-34", 3 ],
					"destination" : [ "obj-60", 0 ],
					"hidden" : 0,
					"midpoints" : [ 1150.26001, 530.320007, 1101.26001, 530.320007 ]
				}

			}
, 			{
				"patchline" : 				{
					"source" : [ "obj-60", 0 ],
					"destination" : [ "obj-28", 0 ],
					"hidden" : 0,
					"midpoints" : [ 1101.26001, 615.320007, 1137.26001, 615.320007 ]
				}

			}
, 			{
				"patchline" : 				{
					"source" : [ "obj-15", 3 ],
					"destination" : [ "obj-61", 0 ],
					"hidden" : 0,
					"midpoints" : [ 166.5, 791.0, 119.5, 791.0 ]
				}

			}
, 			{
				"patchline" : 				{
					"source" : [ "obj-61", 0 ],
					"destination" : [ "obj-35", 0 ],
					"hidden" : 0,
					"midpoints" : [ 119.5, 891.0, 138.5, 891.0 ]
				}

			}
, 			{
				"patchline" : 				{
					"source" : [ "obj-19", 3 ],
					"destination" : [ "obj-62", 0 ],
					"hidden" : 0,
					"midpoints" : [ 504.470001, 791.789978, 462.470001, 791.789978 ]
				}

			}
, 			{
				"patchline" : 				{
					"source" : [ "obj-62", 0 ],
					"destination" : [ "obj-42", 0 ],
					"hidden" : 0,
					"midpoints" : [ 462.470001, 886.789978, 492.470001, 886.789978 ]
				}

			}
, 			{
				"patchline" : 				{
					"source" : [ "obj-18", 3 ],
					"destination" : [ "obj-63", 0 ],
					"hidden" : 0,
					"midpoints" : [ 823.870056, 790.369995, 782.870056, 790.369995 ]
				}

			}
, 			{
				"patchline" : 				{
					"source" : [ "obj-63", 0 ],
					"destination" : [ "obj-47", 0 ],
					"hidden" : 0,
					"midpoints" : [ 782.870056, 888.369995, 795.870056, 888.369995 ]
				}

			}
, 			{
				"patchline" : 				{
					"source" : [ "obj-17", 3 ],
					"destination" : [ "obj-64", 0 ],
					"hidden" : 0,
					"midpoints" : [ 1135.990112, 777.529968, 1098.990112, 777.529968 ]
				}

			}
, 			{
				"patchline" : 				{
					"source" : [ "obj-64", 0 ],
					"destination" : [ "obj-52", 0 ],
					"hidden" : 0,
					"midpoints" : [ 1098.990112, 871.529968 ]
				}

			}
, 			{
				"patchline" : 				{
					"source" : [ "obj-66", 0 ],
					"destination" : [ "obj-67", 0 ],
					"hidden" : 0,
					"midpoints" : [ 128.5, 356.0, 149.5, 356.0 ]
				}

			}
, 			{
				"patchline" : 				{
					"source" : [ "obj-71", 0 ],
					"destination" : [ "obj-67", 0 ],
					"hidden" : 0,
					"midpoints" : [  ]
				}

			}
, 			{
				"patchline" : 				{
					"source" : [ "obj-73", 1 ],
					"destination" : [ "obj-68", 0 ],
					"hidden" : 0,
					"midpoints" : [ 144.166672, 273.0, 209.5, 273.0 ]
				}

			}
, 			{
				"patchline" : 				{
					"source" : [ "obj-73", 3 ],
					"destination" : [ "obj-66", 0 ],
					"hidden" : 0,
					"midpoints" : [ 193.5, 264.0, 128.5, 264.0 ]
				}

			}
, 			{
				"patchline" : 				{
					"source" : [ "obj-68", 0 ],
					"destination" : [ "obj-70", 0 ],
					"hidden" : 0,
					"midpoints" : [ 209.5, 296.0, 209.5, 296.0 ]
				}

			}
, 			{
				"patchline" : 				{
					"source" : [ "obj-70", 0 ],
					"destination" : [ "obj-71", 1 ],
					"hidden" : 0,
					"midpoints" : [ 209.5, 332.0 ]
				}

			}
, 			{
				"patchline" : 				{
					"source" : [ "obj-77", 0 ],
					"destination" : [ "obj-81", 0 ],
					"hidden" : 0,
					"midpoints" : [ 37.5, 168.0, 119.5, 168.0 ]
				}

			}
, 			{
				"patchline" : 				{
					"source" : [ "obj-79", 0 ],
					"destination" : [ "obj-73", 0 ],
					"hidden" : 0,
					"midpoints" : [ 157.5, 213.0, 119.5, 213.0 ]
				}

			}
, 			{
				"patchline" : 				{
					"source" : [ "obj-75", 0 ],
					"destination" : [ "obj-73", 0 ],
					"hidden" : 0,
					"midpoints" : [ 289.5, 216.0, 119.5, 216.0 ]
				}

			}
, 			{
				"patchline" : 				{
					"source" : [ "obj-81", 0 ],
					"destination" : [ "obj-73", 0 ],
					"hidden" : 0,
					"midpoints" : [ 119.5, 203.0, 119.5, 203.0 ]
				}

			}
, 			{
				"patchline" : 				{
					"source" : [ "obj-3", 0 ],
					"destination" : [ "obj-13", 0 ],
					"hidden" : 0,
					"midpoints" : [ 108.5, 526.0, 11.5, 526.0 ]
				}

			}
, 			{
				"patchline" : 				{
					"source" : [ "obj-13", 0 ],
					"destination" : [ "obj-74", 0 ],
					"hidden" : 0,
					"midpoints" : [  ]
				}

			}
, 			{
				"patchline" : 				{
					"source" : [ "obj-13", 0 ],
					"destination" : [ "obj-76", 0 ],
					"hidden" : 0,
					"midpoints" : [  ]
				}

			}
, 			{
				"patchline" : 				{
					"source" : [ "obj-13", 1 ],
					"destination" : [ "obj-74", 0 ],
					"hidden" : 0,
					"midpoints" : [  ]
				}

			}
, 			{
				"patchline" : 				{
					"source" : [ "obj-13", 1 ],
					"destination" : [ "obj-76", 0 ],
					"hidden" : 0,
					"midpoints" : [  ]
				}

			}
, 			{
				"patchline" : 				{
					"source" : [ "obj-73", 0 ],
					"destination" : [ "obj-25", 0 ],
					"hidden" : 0,
					"midpoints" : [  ]
				}

			}
, 			{
				"patchline" : 				{
					"source" : [ "obj-25", 0 ],
					"destination" : [ "obj-69", 0 ],
					"hidden" : 0,
					"midpoints" : [  ]
				}

			}
, 			{
				"patchline" : 				{
					"source" : [ "obj-25", 0 ],
					"destination" : [ "obj-65", 0 ],
					"hidden" : 0,
					"midpoints" : [  ]
				}

			}
, 			{
				"patchline" : 				{
					"source" : [ "obj-25", 1 ],
					"destination" : [ "obj-69", 0 ],
					"hidden" : 0,
					"midpoints" : [  ]
				}

			}
, 			{
				"patchline" : 				{
					"source" : [ "obj-25", 1 ],
					"destination" : [ "obj-65", 0 ],
					"hidden" : 0,
					"midpoints" : [  ]
				}

			}
, 			{
				"patchline" : 				{
					"source" : [ "obj-12", 0 ],
					"destination" : [ "obj-30", 0 ],
					"hidden" : 0,
					"midpoints" : [  ]
				}

			}
, 			{
				"patchline" : 				{
					"source" : [ "obj-30", 0 ],
					"destination" : [ "obj-91", 0 ],
					"hidden" : 0,
					"midpoints" : [  ]
				}

			}
, 			{
				"patchline" : 				{
					"source" : [ "obj-30", 1 ],
					"destination" : [ "obj-90", 0 ],
					"hidden" : 0,
					"midpoints" : [  ]
				}

			}
, 			{
				"patchline" : 				{
					"source" : [ "obj-30", 0 ],
					"destination" : [ "obj-90", 0 ],
					"hidden" : 0,
					"midpoints" : [  ]
				}

			}
, 			{
				"patchline" : 				{
					"source" : [ "obj-30", 1 ],
					"destination" : [ "obj-91", 0 ],
					"hidden" : 0,
					"midpoints" : [  ]
				}

			}
, 			{
				"patchline" : 				{
					"source" : [ "obj-16", 0 ],
					"destination" : [ "obj-32", 0 ],
					"hidden" : 0,
					"midpoints" : [  ]
				}

			}
, 			{
				"patchline" : 				{
					"source" : [ "obj-32", 0 ],
					"destination" : [ "obj-92", 0 ],
					"hidden" : 0,
					"midpoints" : [  ]
				}

			}
, 			{
				"patchline" : 				{
					"source" : [ "obj-32", 0 ],
					"destination" : [ "obj-93", 0 ],
					"hidden" : 0,
					"midpoints" : [  ]
				}

			}
, 			{
				"patchline" : 				{
					"source" : [ "obj-32", 1 ],
					"destination" : [ "obj-92", 0 ],
					"hidden" : 0,
					"midpoints" : [  ]
				}

			}
, 			{
				"patchline" : 				{
					"source" : [ "obj-32", 1 ],
					"destination" : [ "obj-93", 0 ],
					"hidden" : 0,
					"midpoints" : [  ]
				}

			}
, 			{
				"patchline" : 				{
					"source" : [ "obj-34", 0 ],
					"destination" : [ "obj-37", 0 ],
					"hidden" : 0,
					"midpoints" : [  ]
				}

			}
, 			{
				"patchline" : 				{
					"source" : [ "obj-37", 0 ],
					"destination" : [ "obj-94", 0 ],
					"hidden" : 0,
					"midpoints" : [  ]
				}

			}
, 			{
				"patchline" : 				{
					"source" : [ "obj-37", 0 ],
					"destination" : [ "obj-95", 0 ],
					"hidden" : 0,
					"midpoints" : [  ]
				}

			}
, 			{
				"patchline" : 				{
					"source" : [ "obj-37", 1 ],
					"destination" : [ "obj-94", 0 ],
					"hidden" : 0,
					"midpoints" : [  ]
				}

			}
, 			{
				"patchline" : 				{
					"source" : [ "obj-37", 1 ],
					"destination" : [ "obj-95", 0 ],
					"hidden" : 0,
					"midpoints" : [  ]
				}

			}
, 			{
				"patchline" : 				{
					"source" : [ "obj-15", 0 ],
					"destination" : [ "obj-44", 0 ],
					"hidden" : 0,
					"midpoints" : [  ]
				}

			}
, 			{
				"patchline" : 				{
					"source" : [ "obj-44", 0 ],
					"destination" : [ "obj-96", 0 ],
					"hidden" : 0,
					"midpoints" : [  ]
				}

			}
, 			{
				"patchline" : 				{
					"source" : [ "obj-44", 0 ],
					"destination" : [ "obj-97", 0 ],
					"hidden" : 0,
					"midpoints" : [  ]
				}

			}
, 			{
				"patchline" : 				{
					"source" : [ "obj-44", 1 ],
					"destination" : [ "obj-96", 0 ],
					"hidden" : 0,
					"midpoints" : [  ]
				}

			}
, 			{
				"patchline" : 				{
					"source" : [ "obj-44", 1 ],
					"destination" : [ "obj-97", 0 ],
					"hidden" : 0,
					"midpoints" : [  ]
				}

			}
, 			{
				"patchline" : 				{
					"source" : [ "obj-19", 0 ],
					"destination" : [ "obj-49", 0 ],
					"hidden" : 0,
					"midpoints" : [  ]
				}

			}
, 			{
				"patchline" : 				{
					"source" : [ "obj-49", 0 ],
					"destination" : [ "obj-98", 0 ],
					"hidden" : 0,
					"midpoints" : [  ]
				}

			}
, 			{
				"patchline" : 				{
					"source" : [ "obj-49", 0 ],
					"destination" : [ "obj-99", 0 ],
					"hidden" : 0,
					"midpoints" : [  ]
				}

			}
, 			{
				"patchline" : 				{
					"source" : [ "obj-49", 1 ],
					"destination" : [ "obj-98", 0 ],
					"hidden" : 0,
					"midpoints" : [  ]
				}

			}
, 			{
				"patchline" : 				{
					"source" : [ "obj-49", 1 ],
					"destination" : [ "obj-99", 0 ],
					"hidden" : 0,
					"midpoints" : [  ]
				}

			}
, 			{
				"patchline" : 				{
					"source" : [ "obj-18", 0 ],
					"destination" : [ "obj-54", 0 ],
					"hidden" : 0,
					"midpoints" : [  ]
				}

			}
, 			{
				"patchline" : 				{
					"source" : [ "obj-54", 0 ],
					"destination" : [ "obj-100", 0 ],
					"hidden" : 0,
					"midpoints" : [  ]
				}

			}
, 			{
				"patchline" : 				{
					"source" : [ "obj-54", 0 ],
					"destination" : [ "obj-101", 0 ],
					"hidden" : 0,
					"midpoints" : [  ]
				}

			}
, 			{
				"patchline" : 				{
					"source" : [ "obj-54", 1 ],
					"destination" : [ "obj-100", 0 ],
					"hidden" : 0,
					"midpoints" : [  ]
				}

			}
, 			{
				"patchline" : 				{
					"source" : [ "obj-54", 1 ],
					"destination" : [ "obj-101", 0 ],
					"hidden" : 0,
					"midpoints" : [  ]
				}

			}
, 			{
				"patchline" : 				{
					"source" : [ "obj-17", 0 ],
					"destination" : [ "obj-104", 0 ],
					"hidden" : 0,
					"midpoints" : [  ]
				}

			}
, 			{
				"patchline" : 				{
					"source" : [ "obj-104", 0 ],
					"destination" : [ "obj-102", 0 ],
					"hidden" : 0,
					"midpoints" : [  ]
				}

			}
, 			{
				"patchline" : 				{
					"source" : [ "obj-104", 0 ],
					"destination" : [ "obj-103", 0 ],
					"hidden" : 0,
					"midpoints" : [  ]
				}

			}
, 			{
				"patchline" : 				{
					"source" : [ "obj-104", 1 ],
					"destination" : [ "obj-102", 0 ],
					"hidden" : 0,
					"midpoints" : [  ]
				}

			}
, 			{
				"patchline" : 				{
					"source" : [ "obj-104", 1 ],
					"destination" : [ "obj-103", 0 ],
					"hidden" : 0,
					"midpoints" : [  ]
				}

			}
, 			{
				"patchline" : 				{
					"source" : [ "obj-82", 0 ],
					"destination" : [ "obj-73", 0 ],
					"hidden" : 0,
					"midpoints" : [  ]
				}

			}
 ]
	}

}
